<svg width="756" height="295" xmlns="http://www.w3.org/2000/svg" xmlns:xlink="http://www.w3.org/1999/xlink" overflow="hidden"><defs><clipPath id="clip0"><rect x="0" y="0" width="756" height="295"/></clipPath></defs><g clip-path="url(#clip0)"><rect x="0" y="0" width="756" height="295.102" fill="#FFFFFF"/><path d="M8.33491e-05-0.666814 136.99-0.64969 136.99 0.683937-8.33491e-05 0.666814ZM135.657-3.98393 143.658 0.0179567 135.656 4.01784Z" fill="#5B9BD5" transform="matrix(1 0 0 -1.00034 412.5 152.57)"/><path d="M166.5 151.885 308.792 151.903 308.792 153.237 166.5 153.22ZM307.459 148.567 315.461 152.57 307.458 156.572Z" fill="#5B9BD5"/><path d="M365.167 174.56 365.167 214.422 363.833 214.422 363.833 174.56ZM368.501 213.088 364.5 221.092 360.499 213.088Z" fill="#5B9BD5"/><path d="M0.666703-0.0121233 1.37085 38.7113 0.0374423 38.7356-0.666703 0.0121233ZM4.68012 37.3173 0.825379 45.3905-3.32032 37.4628Z" fill="#5B9BD5" transform="matrix(1 0 0 -1.00034 363.5 129.935)"/><rect x="203.5" y="106.537" width="322" height="90.031" stroke="#000000" stroke-width="1.33363" stroke-miterlimit="8" stroke-dasharray="5.33451 4.00088" fill="none"/><path d="M34.9452 118.32 169.507 118.32 169.507 136.332 34.9452 136.332Z" fill="#4472C4" fill-rule="evenodd"/><path d="M34.9452 136.332 169.507 136.332 169.507 159.946 34.9452 159.946Z" fill="#CFD5EA" fill-rule="evenodd"/><path d="M34.9452 159.946 169.507 159.946 169.507 183.561 34.9452 183.561Z" fill="#E9EBF5" fill-rule="evenodd"/><path d="M34.2784 136.332 170.173 136.332" stroke="#FFFFFF" stroke-width="4.00088" stroke-linejoin="round" stroke-miterlimit="10" fill="none" fill-rule="evenodd"/><path d="M34.2784 159.946 170.173 159.946" stroke="#FFFFFF" stroke-width="1.33363" stroke-linejoin="round" stroke-miterlimit="10" fill="none" fill-rule="evenodd"/><path d="M34.9452 117.653 34.9452 184.228" stroke="#FFFFFF" stroke-width="1.33363" stroke-linejoin="round" stroke-miterlimit="10" fill="none" fill-rule="evenodd"/><path d="M169.507 117.653 169.507 184.228" stroke="#FFFFFF" stroke-width="1.33363" stroke-linejoin="round" stroke-miterlimit="10" fill="none" fill-rule="evenodd"/><path d="M34.2784 118.32 170.173 118.32" stroke="#FFFFFF" stroke-width="1.33363" stroke-linejoin="round" stroke-miterlimit="10" fill="none" fill-rule="evenodd"/><path d="M34.2784 183.561 170.173 183.561" stroke="#FFFFFF" stroke-width="1.33363" stroke-linejoin="round" stroke-miterlimit="10" fill="none" fill-rule="evenodd"/><text fill="#FFFFFF" font-family="DengXian,DengXian_MSFontService,sans-serif" font-weight="700" font-size="5.33635" transform="matrix(1 0 0 1.00034 86.2224 129)">学科立项情况</text><text font-family="DengXian,DengXian_MSFontService,sans-serif" font-weight="700" font-size="5.33635" transform="matrix(1 0 0 1.00034 45.749 147)">国家社会科学基金项目</text><text font-family="DengXian,DengXian_MSFontService,sans-serif" font-weight="400" font-size="5.33635" transform="matrix(1 0 0 1.00034 45.749 153)">公众选择导向的政府信息公开渠道管理创新研究</text><text font-family="DengXian,DengXian_MSFontService,sans-serif" font-weight="700" font-size="5.33635" transform="matrix(1 0 0 1.00034 45.749 170)">湖南省社科基金重点项目</text><text font-family="DengXian,DengXian_MSFontService,sans-serif" font-weight="400" font-size="5.33635" transform="matrix(1 0 0 1.00034 45.749 176)">基于多源数据融合的政府信息公众需求探测研究</text><rect x="184.5" y="139.548" width="32" height="25.0086" stroke="#172C51" stroke-width="1.33363" stroke-miterlimit="8" fill="#4472C4"/><text fill="#FFFFFF" font-family="DengXian,DengXian_MSFontService,sans-serif" font-weight="400" font-size="6.00339" transform="matrix(1 0 0 1.00034 193.631 150)">立项</text><text fill="#FFFFFF" font-family="DengXian,DengXian_MSFontService,sans-serif" font-weight="400" font-size="6.00339" transform="matrix(1 0 0 1.00034 193.631 157)">情况</text><path d="M214.732 29.2471 362.479 29.2471 362.479 46.4578 214.732 46.4578Z" fill="#4472C4" fill-rule="evenodd"/><path d="M362.479 29.2471 511.464 29.2471 511.464 46.4578 362.479 46.4578Z" fill="#4472C4" fill-rule="evenodd"/><path d="M214.732 46.4578 362.479 46.4578 362.479 63.6686 214.732 63.6686Z" fill="#CFD5EA" fill-rule="evenodd"/><path d="M362.479 46.4578 511.464 46.4578 511.464 80.8794 362.479 80.8794Z" fill="#CFD5EA" fill-rule="evenodd"/><path d="M214.732 63.6686 362.479 63.6686 362.479 80.8794 214.732 80.8794Z" fill="#E9EBF5" fill-rule="evenodd"/><path d="M362.479 28.58 362.479 81.5464" stroke="#FFFFFF" stroke-width="1.33363" stroke-linejoin="round" stroke-miterlimit="10" fill="none" fill-rule="evenodd"/><path d="M214.065 46.4578 512.131 46.4578" stroke="#FFFFFF" stroke-width="4.00088" stroke-linejoin="round" stroke-miterlimit="10" fill="none" fill-rule="evenodd"/><path d="M214.065 63.6686 363.146 63.6686" stroke="#FFFFFF" stroke-width="1.33363" stroke-linejoin="round" stroke-miterlimit="10" fill="none" fill-rule="evenodd"/><path d="M214.732 28.58 214.732 81.5464" stroke="#FFFFFF" stroke-width="1.33363" stroke-linejoin="round" stroke-miterlimit="10" fill="none" fill-rule="evenodd"/><path d="M511.464 28.58 511.464 81.5464" stroke="#FFFFFF" stroke-width="1.33363" stroke-linejoin="round" stroke-miterlimit="10" fill="none" fill-rule="evenodd"/><path d="M214.065 29.2471 512.131 29.2471" stroke="#FFFFFF" stroke-width="1.33363" stroke-linejoin="round" stroke-miterlimit="10" fill="none" fill-rule="evenodd"/><path d="M214.065 80.8794 512.131 80.8794" stroke="#FFFFFF" stroke-width="1.33363" stroke-linejoin="round" stroke-miterlimit="10" fill="none" fill-rule="evenodd"/><text fill="#FFFFFF" font-family="DengXian,DengXian_MSFontService,sans-serif" font-weight="700" font-size="5.33635" transform="matrix(1 0 0 1.00034 388.961 40)">权威期刊发表摘登又被权威期刊引用情况</text><text fill="#FFFFFF" font-family="DengXian,DengXian_MSFontService,sans-serif" font-weight="700" font-size="5.33635" transform="matrix(1 0 0 1.00034 255.015 40)">权威期刊（</text><text fill="#FFFFFF" font-family="DengXian,DengXian_MSFontService,sans-serif" font-weight="700" font-size="5.33635" transform="matrix(1 0 0 1.00034 281.687 40)">CSSCI</text><text fill="#FFFFFF" font-family="DengXian,DengXian_MSFontService,sans-serif" font-weight="700" font-size="5.33635" transform="matrix(1 0 0 1.00034 295.524 40)">）全文发表</text><text font-family="DengXian,DengXian_MSFontService,sans-serif" font-weight="700" font-size="5.33635" transform="matrix(1 0 0 1.00034 373.283 57)">第二、三、四、五、六章部分由</text><text font-family="DengXian,DengXian_MSFontService,sans-serif" font-weight="700" font-size="5.33635" transform="matrix(1 0 0 1.00034 447.966 57)">CSSCI</text><text font-family="DengXian,DengXian_MSFontService,sans-serif" font-weight="700" font-size="5.33635" transform="matrix(1 0 0 1.00034 461.802 57)">源刊论文发表摘</text><text font-family="DengXian,DengXian_MSFontService,sans-serif" font-weight="700" font-size="5.33635" transform="matrix(1 0 0 1.00034 373.283 63)">登，</text><text font-family="DengXian,DengXian_MSFontService,sans-serif" font-weight="700" font-size="5.33635" transform="matrix(1 0 0 1.00034 383.952 63)">2017</text><text font-family="DengXian,DengXian_MSFontService,sans-serif" font-weight="700" font-size="5.33635" transform="matrix(1 0 0 1.00034 395.955 63)">-</text><text font-family="DengXian,DengXian_MSFontService,sans-serif" font-weight="700" font-size="5.33635" transform="matrix(1 0 0 1.00034 398.622 63)">2023</text><text font-family="DengXian,DengXian_MSFontService,sans-serif" font-weight="700" font-size="5.33635" transform="matrix(1 0 0 1.00034 410.625 63)">年期间，该引文又被</text><text font-family="DengXian,DengXian_MSFontService,sans-serif" font-weight="700" font-size="5.33635" transform="matrix(1 0 0 1.00034 458.635 63)">CSSCI</text><text font-family="DengXian,DengXian_MSFontService,sans-serif" font-weight="700" font-size="5.33635" transform="matrix(1 0 0 1.00034 472.471 63)">期刊引用</text><text font-family="DengXian,DengXian_MSFontService,sans-serif" font-weight="700" font-size="5.33635" transform="matrix(1 0 0 1.00034 493.81 63)">34</text><text font-family="DengXian,DengXian_MSFontService,sans-serif" font-weight="700" font-size="5.33635" transform="matrix(1 0 0 1.00034 373.283 70)">次，国内一级出版单位著作引用</text><text font-family="DengXian,DengXian_MSFontService,sans-serif" font-weight="700" font-size="5.33635" transform="matrix(1 0 0 1.00034 447.966 70)">2</text><text font-family="DengXian,DengXian_MSFontService,sans-serif" font-weight="700" font-size="5.33635" transform="matrix(1 0 0 1.00034 450.967 70)">次</text><text font-family="DengXian,DengXian_MSFontService,sans-serif" font-weight="700" font-size="5.33635" transform="matrix(1 0 0 1.00034 225.535 57)">第三章由权威期刊情报资料工作全文发表，</text><text font-family="DengXian,DengXian_MSFontService,sans-serif" font-weight="700" font-size="5.33635" transform="matrix(1 0 0 1.00034 326.891 57)">2017</text><text font-family="DengXian,DengXian_MSFontService,sans-serif" font-weight="700" font-size="5.33635" transform="matrix(1 0 0 1.00034 338.894 57)">（</text><text font-family="DengXian,DengXian_MSFontService,sans-serif" font-weight="700" font-size="5.33635" transform="matrix(1 0 0 1.00034 344.228 57)">2</text><text font-family="DengXian,DengXian_MSFontService,sans-serif" font-weight="700" font-size="5.33635" transform="matrix(1 0 0 1.00034 347.229 57)">）</text><text font-family="DengXian,DengXian_MSFontService,sans-serif" font-weight="700" font-size="5.33635" transform="matrix(1 0 0 1.00034 225.535 74)">第四章由权威期刊情报资料工作全文发表，</text><text font-family="DengXian,DengXian_MSFontService,sans-serif" font-weight="700" font-size="5.33635" transform="matrix(1 0 0 1.00034 326.891 74)">2018</text><text font-family="DengXian,DengXian_MSFontService,sans-serif" font-weight="700" font-size="5.33635" transform="matrix(1 0 0 1.00034 338.894 74)">（</text><text font-family="DengXian,DengXian_MSFontService,sans-serif" font-weight="700" font-size="5.33635" transform="matrix(1 0 0 1.00034 344.228 74)">2</text><text font-family="DengXian,DengXian_MSFontService,sans-serif" font-weight="700" font-size="5.33635" transform="matrix(1 0 0 1.00034 347.229 74)">）</text><rect x="346.5" y="96.5333" width="32" height="26.0089" stroke="#172C51" stroke-width="1.33363" stroke-miterlimit="8" fill="#4472C4"/><text fill="#FFFFFF" font-family="DengXian,DengXian_MSFontService,sans-serif" font-weight="400" font-size="6.00339" transform="matrix(1 0 0 1.00034 356.075 108)">引用</text><text fill="#FFFFFF" font-family="DengXian,DengXian_MSFontService,sans-serif" font-weight="400" font-size="6.00339" transform="matrix(1 0 0 1.00034 356.075 115)">转载</text><rect x="346.5" y="182.563" width="32" height="25.0087" stroke="#172C51" stroke-width="1.33363" stroke-miterlimit="8" fill="#4472C4"/><text fill="#FFFFFF" font-family="DengXian,DengXian_MSFontService,sans-serif" font-weight="400" font-size="6.00339" transform="matrix(1 0 0 1.00034 356.075 193)">其他</text><text fill="#FFFFFF" font-family="DengXian,DengXian_MSFontService,sans-serif" font-weight="400" font-size="6.00339" transform="matrix(1 0 0 1.00034 356.075 200)">情况</text><rect x="506.5" y="136.547" width="32" height="26.0089" stroke="#172C51" stroke-width="1.33363" stroke-miterlimit="8" fill="#4472C4"/><text fill="#FFFFFF" font-family="DengXian,DengXian_MSFontService,sans-serif" font-weight="400" font-size="6.00339" transform="matrix(1 0 0 1.00034 515.802 148)">引用</text><text fill="#FFFFFF" font-family="DengXian,DengXian_MSFontService,sans-serif" font-weight="400" font-size="6.00339" transform="matrix(1 0 0 1.00034 515.802 155)">转载</text><path d="M221.032 221.001 364.725 221.001 364.725 239.013 221.032 239.013Z" fill="#4472C4" fill-rule="evenodd"/><path d="M364.725 221.001 491.292 221.001 491.292 239.013 364.725 239.013Z" fill="#4472C4" fill-rule="evenodd"/><path d="M221.032 239.013 364.725 239.013 364.725 262.627 221.032 262.627Z" fill="#CFD5EA" fill-rule="evenodd"/><path d="M364.725 239.013 491.292 239.013 491.292 286.242 364.725 286.242Z" fill="#CFD5EA" fill-rule="evenodd"/><path d="M221.032 262.627 364.725 262.627 364.725 286.242 221.032 286.242Z" fill="#E9EBF5" fill-rule="evenodd"/><path d="M364.725 220.334 364.725 286.909" stroke="#FFFFFF" stroke-width="1.33363" stroke-linejoin="round" stroke-miterlimit="10" fill="none" fill-rule="evenodd"/><path d="M220.365 239.013 491.959 239.013" stroke="#FFFFFF" stroke-width="4.00088" stroke-linejoin="round" stroke-miterlimit="10" fill="none" fill-rule="evenodd"/><path d="M220.365 262.627 365.391 262.627" stroke="#FFFFFF" stroke-width="1.33363" stroke-linejoin="round" stroke-miterlimit="10" fill="none" fill-rule="evenodd"/><path d="M221.032 220.334 221.032 286.909" stroke="#FFFFFF" stroke-width="1.33363" stroke-linejoin="round" stroke-miterlimit="10" fill="none" fill-rule="evenodd"/><path d="M491.292 220.334 491.292 286.909" stroke="#FFFFFF" stroke-width="1.33363" stroke-linejoin="round" stroke-miterlimit="10" fill="none" fill-rule="evenodd"/><path d="M220.365 221.001 491.959 221.001" stroke="#FFFFFF" stroke-width="1.33363" stroke-linejoin="round" stroke-miterlimit="10" fill="none" fill-rule="evenodd"/><path d="M220.365 286.242 491.959 286.242" stroke="#FFFFFF" stroke-width="1.33363" stroke-linejoin="round" stroke-miterlimit="10" fill="none" fill-rule="evenodd"/><text fill="#FFFFFF" font-family="DengXian,DengXian_MSFontService,sans-serif" font-weight="700" font-size="5.33635" transform="matrix(1 0 0 1.00034 412.005 231)">宣传推介情况</text><text fill="#FFFFFF" font-family="DengXian,DengXian_MSFontService,sans-serif" font-weight="700" font-size="5.33635" transform="matrix(1 0 0 1.00034 258.204 231)">知名学者、重要期刊引用情况</text><text font-family="DengXian,DengXian_MSFontService,sans-serif" font-weight="700" font-size="5.33635" transform="matrix(1 0 0 1.00034 375.528 256)">被当当、百度百科、中国科学院文献情报中</text><text font-family="DengXian,DengXian_MSFontService,sans-serif" font-weight="700" font-size="5.33635" transform="matrix(1 0 0 1.00034 375.528 263)">心等宣传与收藏</text><text font-family="DengXian,DengXian_MSFontService,sans-serif" font-weight="700" font-size="5.33635" transform="matrix(1 0 0 1.00034 231.835 250)">观点被多个学科著名学者在权威学术期刊引用，如</text><text font-family="DengXian,DengXian_MSFontService,sans-serif" font-weight="700" font-size="5.33635" transform="matrix(1 0 0 1.00034 231.835 256)">鲍静、段尧清等</text><text font-family="DengXian,DengXian_MSFontService,sans-serif" font-weight="700" font-size="5.33635" transform="matrix(1 0 0 1.00034 231.835 273)">观点被多个学科权威学术期刊引用，中国软科学、</text><text font-family="DengXian,DengXian_MSFontService,sans-serif" font-weight="700" font-size="5.33635" transform="matrix(1 0 0 1.00034 231.835 279)">大学图书馆学报等</text><rect x="208" y="112.039" width="102" height="17.0058" fill="#B4C7E7"/><text fill="#203864" font-family="DengXian,DengXian_MSFontService,sans-serif" font-weight="400" font-size="6.00339" transform="matrix(1 0 0 1.00034 247.272 123)">范式创新</text><rect x="208" y="174.06" width="102" height="17.0058" fill="#B4C7E7"/><text fill="#203864" font-family="DengXian,DengXian_MSFontService,sans-serif" font-weight="400" font-size="6.00339" transform="matrix(1 0 0 1.00034 226.248 185)">现状探究及渠道选择模式</text><rect x="419" y="113.039" width="102" height="17.0058" fill="#B4C7E7"/><text fill="#203864" font-family="DengXian,DengXian_MSFontService,sans-serif" font-weight="400" font-size="6.00339" transform="matrix(1 0 0 1.00034 436.758 124)">渠道选择及使用意愿模型</text><rect x="419" y="174.06" width="102" height="17.0058" fill="#B4C7E7"/><text fill="#203864" font-family="DengXian,DengXian_MSFontService,sans-serif" font-weight="400" font-size="6.00339" transform="matrix(1 0 0 1.00034 430.778 185)">策略创新基本方向和具体途径</text><path d="M555.572 116.764 721.055 116.764 721.055 134.776 555.572 134.776Z" fill="#4472C4" fill-rule="evenodd"/><path d="M555.572 134.776 721.055 134.776 721.055 152.939 555.572 152.939Z" fill="#CFD5EA" fill-rule="evenodd"/><path d="M555.572 152.939 721.055 152.939 721.055 182.957 555.572 182.957Z" fill="#E9EBF5" fill-rule="evenodd"/><path d="M554.905 134.776 721.722 134.776" stroke="#FFFFFF" stroke-width="4.00088" stroke-linejoin="round" stroke-miterlimit="10" fill="none" fill-rule="evenodd"/><path d="M554.905 152.939 721.722 152.939" stroke="#FFFFFF" stroke-width="1.33363" stroke-linejoin="round" stroke-miterlimit="10" fill="none" fill-rule="evenodd"/><path d="M555.572 116.097 555.572 183.624" stroke="#FFFFFF" stroke-width="1.33363" stroke-linejoin="round" stroke-miterlimit="10" fill="none" fill-rule="evenodd"/><path d="M721.055 116.097 721.055 183.624" stroke="#FFFFFF" stroke-width="1.33363" stroke-linejoin="round" stroke-miterlimit="10" fill="none" fill-rule="evenodd"/><path d="M554.905 116.764 721.722 116.764" stroke="#FFFFFF" stroke-width="1.33363" stroke-linejoin="round" stroke-miterlimit="10" fill="none" fill-rule="evenodd"/><path d="M554.905 182.957 721.722 182.957" stroke="#FFFFFF" stroke-width="1.33363" stroke-linejoin="round" stroke-miterlimit="10" fill="none" fill-rule="evenodd"/><text fill="#FFFFFF" font-family="DengXian,DengXian_MSFontService,sans-serif" font-weight="700" font-size="5.33635" transform="matrix(1 0 0 1.00034 604.723 127)">权威期刊（</text><text fill="#FFFFFF" font-family="DengXian,DengXian_MSFontService,sans-serif" font-weight="700" font-size="5.33635" transform="matrix(1 0 0 1.00034 631.395 127)">CSSCI</text><text fill="#FFFFFF" font-family="DengXian,DengXian_MSFontService,sans-serif" font-weight="700" font-size="5.33635" transform="matrix(1 0 0 1.00034 645.232 127)">）观点摘登</text><text font-family="DengXian,DengXian_MSFontService,sans-serif" font-weight="700" font-size="5.33635" transform="matrix(1 0 0 1.00034 566.376 145)">第六章第一节部分由现代情报（</text><text font-family="DengXian,DengXian_MSFontService,sans-serif" font-weight="700" font-size="5.33635" transform="matrix(1 0 0 1.00034 641.059 145)">CSSCI</text><text font-family="DengXian,DengXian_MSFontService,sans-serif" font-weight="700" font-size="5.33635" transform="matrix(1 0 0 1.00034 654.895 145)">）摘登，</text><text font-family="DengXian,DengXian_MSFontService,sans-serif" font-weight="700" font-size="5.33635" transform="matrix(1 0 0 1.00034 676.233 145)">2019(11)</text><text font-family="DengXian,DengXian_MSFontService,sans-serif" font-weight="700" font-size="5.33635" transform="matrix(1 0 0 1.00034 566.376 163)">部分内容由权威期刊电子政务，</text><text font-family="DengXian,DengXian_MSFontService,sans-serif" font-weight="700" font-size="5.33635" transform="matrix(1 0 0 1.00034 641.059 163)">2022(9)</text><text font-family="DengXian,DengXian_MSFontService,sans-serif" font-weight="700" font-size="5.33635" transform="matrix(1 0 0 1.00034 659.729 163)">；现代情报，</text><text font-family="DengXian,DengXian_MSFontService,sans-serif" font-weight="700" font-size="5.33635" transform="matrix(1 0 0 1.00034 566.376 169)">2021(10)</text><text font-family="DengXian,DengXian_MSFontService,sans-serif" font-weight="700" font-size="5.33635" transform="matrix(1 0 0 1.00034 588.047 169)">；现代情报，</text><text font-family="DengXian,DengXian_MSFontService,sans-serif" font-weight="700" font-size="5.33635" transform="matrix(1 0 0 1.00034 620.054 169)">2018</text><text font-family="DengXian,DengXian_MSFontService,sans-serif" font-weight="700" font-size="5.33635" transform="matrix(1 0 0 1.00034 632.057 169)">（</text><text font-family="DengXian,DengXian_MSFontService,sans-serif" font-weight="700" font-size="5.33635" transform="matrix(1 0 0 1.00034 637.391 169)">12</text><text font-family="DengXian,DengXian_MSFontService,sans-serif" font-weight="700" font-size="5.33635" transform="matrix(1 0 0 1.00034 643.393 169)">）；现代情报，</text><text font-family="DengXian,DengXian_MSFontService,sans-serif" font-weight="700" font-size="5.33635" transform="matrix(1 0 0 1.00034 680.734 169)">2018</text><text font-family="DengXian,DengXian_MSFontService,sans-serif" font-weight="700" font-size="5.33635" transform="matrix(1 0 0 1.00034 692.737 169)">（</text><text font-family="DengXian,DengXian_MSFontService,sans-serif" font-weight="700" font-size="5.33635" transform="matrix(1 0 0 1.00034 698.071 169)">5</text><text font-family="DengXian,DengXian_MSFontService,sans-serif" font-weight="700" font-size="5.33635" transform="matrix(1 0 0 1.00034 701.072 169)">）；</text><text font-family="DengXian,DengXian_MSFontService,sans-serif" font-weight="700" font-size="5.33635" transform="matrix(1 0 0 1.00034 566.376 176)">现代情报，</text><text font-family="DengXian,DengXian_MSFontService,sans-serif" font-weight="700" font-size="5.33635" transform="matrix(1 0 0 1.00034 593.048 176)">2017</text><text font-family="DengXian,DengXian_MSFontService,sans-serif" font-weight="700" font-size="5.33635" transform="matrix(1 0 0 1.00034 605.051 176)">（</text><text font-family="DengXian,DengXian_MSFontService,sans-serif" font-weight="700" font-size="5.33635" transform="matrix(1 0 0 1.00034 610.385 176)">9</text><text font-family="DengXian,DengXian_MSFontService,sans-serif" font-weight="700" font-size="5.33635" transform="matrix(1 0 0 1.00034 613.386 176)">）；现代情报，</text><text font-family="DengXian,DengXian_MSFontService,sans-serif" font-weight="700" font-size="5.33635" transform="matrix(1 0 0 1.00034 650.728 176)">2017</text><text font-family="DengXian,DengXian_MSFontService,sans-serif" font-weight="700" font-size="5.33635" transform="matrix(1 0 0 1.00034 662.73 176)">（</text><text font-family="DengXian,DengXian_MSFontService,sans-serif" font-weight="700" font-size="5.33635" transform="matrix(1 0 0 1.00034 668.065 176)">5</text><text font-family="DengXian,DengXian_MSFontService,sans-serif" font-weight="700" font-size="5.33635" transform="matrix(1 0 0 1.00034 671.065 176)">）观点摘登</text><path d="M315.5 137.881C315.5 133.829 318.783 130.545 322.833 130.545L405.167 130.545C409.217 130.545 412.5 133.829 412.5 137.881L412.5 167.224C412.5 171.276 409.217 174.56 405.167 174.56L322.833 174.56C318.783 174.56 315.5 171.276 315.5 167.224Z" stroke="#172C51" stroke-width="1.33363" stroke-miterlimit="8" fill="#4472C4" fill-rule="evenodd"/><text fill="#FFFFFF" font-family="DengXian,DengXian_MSFontService,sans-serif" font-weight="700" font-size="7.53759" transform="matrix(1 0 0 1.00034 329.341 150)">公众获取政府信息渠</text><text fill="#FFFFFF" font-family="DengXian,DengXian_MSFontService,sans-serif" font-weight="700" font-size="7.53759" transform="matrix(1 0 0 1.00034 333.089 159)">道选择及策略研究</text></g></svg>