<svg width="756" height="295" xmlns="http://www.w3.org/2000/svg" xmlns:xlink="http://www.w3.org/1999/xlink" overflow="hidden"><defs><clipPath id="clip0"><rect x="0" y="0" width="756" height="295"/></clipPath></defs><g clip-path="url(#clip0)"><rect x="0" y="0" width="756" height="295.102" fill="#FFFFFF"/><path d="M8.33491e-05-0.666814 136.99-0.64969 136.99 0.683937-8.33491e-05 0.666814ZM135.657-3.98393 143.658 0.0179567 135.656 4.01784Z" fill="#5B9BD5" transform="matrix(1 0 0 -1.00034 412.5 152.57)"/><path d="M166.5 151.885 308.792 151.903 308.792 153.237 166.5 153.22ZM307.459 148.567 315.461 152.57 307.458 156.572Z" fill="#5B9BD5"/><path d="M365.167 174.56 365.167 214.422 363.833 214.422 363.833 174.56ZM368.501 213.088 364.5 221.092 360.499 213.088Z" fill="#5B9BD5"/><path d="M0.666703-0.0121233 1.37085 38.7113 0.0374423 38.7356-0.666703 0.0121233ZM4.68012 37.3173 0.825379 45.3905-3.32032 37.4628Z" fill="#5B9BD5" transform="matrix(1 0 0 -1.00034 363.5 129.935)"/><rect x="203.5" y="106.537" width="322" height="90.031" stroke="#000000" stroke-width="1.33363" stroke-miterlimit="8" stroke-dasharray="5.33451 4.00088" fill="none"/><path d="M37.9459 112.049 172.507 112.049 172.507 130.861 37.9459 130.861Z" fill="#4472C4" fill-rule="evenodd"/><path d="M37.9459 130.861 172.507 130.861 172.507 165.682 37.9459 165.682Z" fill="#CFD5EA" fill-rule="evenodd"/><path d="M37.9459 165.682 172.507 165.682 172.507 200.502 37.9459 200.502Z" fill="#E9EBF5" fill-rule="evenodd"/><path d="M37.2791 130.861 173.174 130.861" stroke="#FFFFFF" stroke-width="4.00088" stroke-linejoin="round" stroke-miterlimit="10" fill="none" fill-rule="evenodd"/><path d="M37.2791 165.682 173.174 165.682" stroke="#FFFFFF" stroke-width="1.33363" stroke-linejoin="round" stroke-miterlimit="10" fill="none" fill-rule="evenodd"/><path d="M37.9459 111.382 37.9459 201.169" stroke="#FFFFFF" stroke-width="1.33363" stroke-linejoin="round" stroke-miterlimit="10" fill="none" fill-rule="evenodd"/><path d="M172.507 111.382 172.507 201.169" stroke="#FFFFFF" stroke-width="1.33363" stroke-linejoin="round" stroke-miterlimit="10" fill="none" fill-rule="evenodd"/><path d="M37.2791 112.049 173.174 112.049" stroke="#FFFFFF" stroke-width="1.33363" stroke-linejoin="round" stroke-miterlimit="10" fill="none" fill-rule="evenodd"/><path d="M37.2791 200.502 173.174 200.502" stroke="#FFFFFF" stroke-width="1.33363" stroke-linejoin="round" stroke-miterlimit="10" fill="none" fill-rule="evenodd"/><text fill="#FFFFFF" font-family="DengXian,DengXian_MSFontService,sans-serif" font-weight="700" font-size="6.67044" transform="matrix(1 0 0 1.00034 85.2222 123)">学科立项情况</text><text font-family="DengXian,DengXian_MSFontService,sans-serif" font-weight="700" font-size="6.67044" transform="matrix(1 0 0 1.00034 48.7496 142)">国家社会科学基金项目</text><text font-family="DengXian,DengXian_MSFontService,sans-serif" font-weight="400" font-size="6.67044" transform="matrix(1 0 0 1.00034 48.7496 150)">公众选择导向的政府信息公开渠道管</text><text font-family="DengXian,DengXian_MSFontService,sans-serif" font-weight="400" font-size="6.67044" transform="matrix(1 0 0 1.00034 48.7496 158)">理创新研究</text><text font-family="DengXian,DengXian_MSFontService,sans-serif" font-weight="700" font-size="6.67044" transform="matrix(1 0 0 1.00034 48.7496 177)">湖南省社科基金重点项目</text><text font-family="DengXian,DengXian_MSFontService,sans-serif" font-weight="400" font-size="6.67044" transform="matrix(1 0 0 1.00034 48.7496 185)">基于多源数据融合的政府信息公众需</text><text font-family="DengXian,DengXian_MSFontService,sans-serif" font-weight="400" font-size="6.67044" transform="matrix(1 0 0 1.00034 48.7496 193)">求探测研究</text><rect x="184.5" y="139.548" width="34" height="26.0089" stroke="#172C51" stroke-width="1.33363" stroke-miterlimit="8" fill="#4472C4"/><text fill="#FFFFFF" font-family="DengXian,DengXian_MSFontService,sans-serif" font-weight="400" font-size="6.67044" transform="matrix(1 0 0 1.00034 193.91 150)">立项</text><text fill="#FFFFFF" font-family="DengXian,DengXian_MSFontService,sans-serif" font-weight="400" font-size="6.67044" transform="matrix(1 0 0 1.00034 193.91 158)">情况</text><path d="M186.174 21.5455 362.213 21.5455 362.213 40.3572 186.174 40.3572Z" fill="#4472C4" fill-rule="evenodd"/><path d="M362.213 21.5455 505.711 21.5455 505.711 40.3572 362.213 40.3572Z" fill="#4472C4" fill-rule="evenodd"/><path d="M186.174 40.3572 362.213 40.3572 362.213 59.1689 186.174 59.1689Z" fill="#CFD5EA" fill-rule="evenodd"/><path d="M362.213 40.3572 505.711 40.3572 505.711 83.1824 362.213 83.1824Z" fill="#CFD5EA" fill-rule="evenodd"/><path d="M186.174 59.1689 362.213 59.1689 362.213 83.1824 186.174 83.1824Z" fill="#E9EBF5" fill-rule="evenodd"/><path d="M362.213 20.8785 362.213 83.8495" stroke="#FFFFFF" stroke-width="1.33363" stroke-linejoin="round" stroke-miterlimit="10" fill="none" fill-rule="evenodd"/><path d="M185.508 40.3572 506.378 40.3572" stroke="#FFFFFF" stroke-width="4.00088" stroke-linejoin="round" stroke-miterlimit="10" fill="none" fill-rule="evenodd"/><path d="M185.508 59.1689 362.88 59.1689" stroke="#FFFFFF" stroke-width="1.33363" stroke-linejoin="round" stroke-miterlimit="10" fill="none" fill-rule="evenodd"/><path d="M186.174 20.8785 186.174 83.8495" stroke="#FFFFFF" stroke-width="1.33363" stroke-linejoin="round" stroke-miterlimit="10" fill="none" fill-rule="evenodd"/><path d="M505.711 20.8785 505.711 83.8495" stroke="#FFFFFF" stroke-width="1.33363" stroke-linejoin="round" stroke-miterlimit="10" fill="none" fill-rule="evenodd"/><path d="M185.508 21.5455 506.378 21.5455" stroke="#FFFFFF" stroke-width="1.33363" stroke-linejoin="round" stroke-miterlimit="10" fill="none" fill-rule="evenodd"/><path d="M185.508 83.1824 506.378 83.1824" stroke="#FFFFFF" stroke-width="1.33363" stroke-linejoin="round" stroke-miterlimit="10" fill="none" fill-rule="evenodd"/><text fill="#FFFFFF" font-family="DengXian,DengXian_MSFontService,sans-serif" font-weight="700" font-size="6.67044" transform="matrix(1 0 0 1.00034 373.949 33)">权威期刊发表摘登又被权威期刊引用情况</text><text fill="#FFFFFF" font-family="DengXian,DengXian_MSFontService,sans-serif" font-weight="700" font-size="6.67044" transform="matrix(1 0 0 1.00034 232.018 33)">权威期刊（</text><text fill="#FFFFFF" font-family="DengXian,DengXian_MSFontService,sans-serif" font-weight="700" font-size="6.67044" transform="matrix(1 0 0 1.00034 265.359 33)">CSSCI</text><text fill="#FFFFFF" font-family="DengXian,DengXian_MSFontService,sans-serif" font-weight="700" font-size="6.67044" transform="matrix(1 0 0 1.00034 283.029 33)">）全文发表</text><text font-family="DengXian,DengXian_MSFontService,sans-serif" font-weight="700" font-size="6.67044" transform="matrix(1 0 0 1.00034 373.017 52)">第二、三、四、五、六章部分由</text><text font-family="DengXian,DengXian_MSFontService,sans-serif" font-weight="700" font-size="6.67044" transform="matrix(1 0 0 1.00034 466.371 52)">CSSCI</text><text font-family="DengXian,DengXian_MSFontService,sans-serif" font-weight="700" font-size="6.67044" transform="matrix(1 0 0 1.00034 484.041 52)">源</text><text font-family="DengXian,DengXian_MSFontService,sans-serif" font-weight="700" font-size="6.67044" transform="matrix(1 0 0 1.00034 373.017 60)">刊论文发表摘登，</text><text font-family="DengXian,DengXian_MSFontService,sans-serif" font-weight="700" font-size="6.67044" transform="matrix(1 0 0 1.00034 426.362 60)">2017</text><text font-family="DengXian,DengXian_MSFontService,sans-serif" font-weight="700" font-size="6.67044" transform="matrix(1 0 0 1.00034 441.032 60)">-</text><text font-family="DengXian,DengXian_MSFontService,sans-serif" font-weight="700" font-size="6.67044" transform="matrix(1 0 0 1.00034 444.366 60)">2023</text><text font-family="DengXian,DengXian_MSFontService,sans-serif" font-weight="700" font-size="6.67044" transform="matrix(1 0 0 1.00034 459.036 60)">年期间，该</text><text font-family="DengXian,DengXian_MSFontService,sans-serif" font-weight="700" font-size="6.67044" transform="matrix(1 0 0 1.00034 373.017 68)">引文又被</text><text font-family="DengXian,DengXian_MSFontService,sans-serif" font-weight="700" font-size="6.67044" transform="matrix(1 0 0 1.00034 399.689 68)">CSSCI</text><text font-family="DengXian,DengXian_MSFontService,sans-serif" font-weight="700" font-size="6.67044" transform="matrix(1 0 0 1.00034 417.36 68)">期刊引用</text><text font-family="DengXian,DengXian_MSFontService,sans-serif" font-weight="700" font-size="6.67044" transform="matrix(1 0 0 1.00034 444.033 68)">34</text><text font-family="DengXian,DengXian_MSFontService,sans-serif" font-weight="700" font-size="6.67044" transform="matrix(1 0 0 1.00034 451.368 68)">次，国内一级</text><text font-family="DengXian,DengXian_MSFontService,sans-serif" font-weight="700" font-size="6.67044" transform="matrix(1 0 0 1.00034 373.017 76)">出版单位著作引用</text><text font-family="DengXian,DengXian_MSFontService,sans-serif" font-weight="700" font-size="6.67044" transform="matrix(1 0 0 1.00034 426.362 76)">2</text><text font-family="DengXian,DengXian_MSFontService,sans-serif" font-weight="700" font-size="6.67044" transform="matrix(1 0 0 1.00034 430.03 76)">次</text><text font-family="DengXian,DengXian_MSFontService,sans-serif" font-weight="700" font-size="6.67044" transform="matrix(1 0 0 1.00034 196.978 52)">第三章由权威期刊情报资料工作全文发表，</text><text font-family="DengXian,DengXian_MSFontService,sans-serif" font-weight="700" font-size="6.67044" transform="matrix(1 0 0 1.00034 323.673 52)">2017</text><text font-family="DengXian,DengXian_MSFontService,sans-serif" font-weight="700" font-size="6.67044" transform="matrix(1 0 0 1.00034 338.343 52)">（</text><text font-family="DengXian,DengXian_MSFontService,sans-serif" font-weight="700" font-size="6.67044" transform="matrix(1 0 0 1.00034 345.011 52)">2</text><text font-family="DengXian,DengXian_MSFontService,sans-serif" font-weight="700" font-size="6.67044" transform="matrix(1 0 0 1.00034 348.678 52)">）</text><text font-family="DengXian,DengXian_MSFontService,sans-serif" font-weight="700" font-size="6.67044" transform="matrix(1 0 0 1.00034 196.978 71)">第四章由权威期刊情报资料工作全文发表，</text><text font-family="DengXian,DengXian_MSFontService,sans-serif" font-weight="700" font-size="6.67044" transform="matrix(1 0 0 1.00034 323.673 71)">2018</text><text font-family="DengXian,DengXian_MSFontService,sans-serif" font-weight="700" font-size="6.67044" transform="matrix(1 0 0 1.00034 338.343 71)">（</text><text font-family="DengXian,DengXian_MSFontService,sans-serif" font-weight="700" font-size="6.67044" transform="matrix(1 0 0 1.00034 345.011 71)">2</text><text font-family="DengXian,DengXian_MSFontService,sans-serif" font-weight="700" font-size="6.67044" transform="matrix(1 0 0 1.00034 348.678 71)">）</text><rect x="346.5" y="96.5333" width="34" height="26.0089" stroke="#172C51" stroke-width="1.33363" stroke-miterlimit="8" fill="#4472C4"/><text fill="#FFFFFF" font-family="DengXian,DengXian_MSFontService,sans-serif" font-weight="400" font-size="6.67044" transform="matrix(1 0 0 1.00034 356.354 107)">引用</text><text fill="#FFFFFF" font-family="DengXian,DengXian_MSFontService,sans-serif" font-weight="400" font-size="6.67044" transform="matrix(1 0 0 1.00034 356.354 115)">转载</text><rect x="346.5" y="182.563" width="34" height="26.009" stroke="#172C51" stroke-width="1.33363" stroke-miterlimit="8" fill="#4472C4"/><text fill="#FFFFFF" font-family="DengXian,DengXian_MSFontService,sans-serif" font-weight="400" font-size="6.67044" transform="matrix(1 0 0 1.00034 356.354 193)">其他</text><text fill="#FFFFFF" font-family="DengXian,DengXian_MSFontService,sans-serif" font-weight="400" font-size="6.67044" transform="matrix(1 0 0 1.00034 356.354 201)">情况</text><rect x="506.5" y="136.547" width="34.0001" height="27.0093" stroke="#172C51" stroke-width="1.33363" stroke-miterlimit="8" fill="#4472C4"/><text fill="#FFFFFF" font-family="DengXian,DengXian_MSFontService,sans-serif" font-weight="400" font-size="6.67044" transform="matrix(1 0 0 1.00034 516.08 148)">引用</text><text fill="#FFFFFF" font-family="DengXian,DengXian_MSFontService,sans-serif" font-weight="400" font-size="6.67044" transform="matrix(1 0 0 1.00034 516.08 156)">转载</text><path d="M221.032 221.001 364.725 221.001 364.725 239.812 221.032 239.812Z" fill="#4472C4" fill-rule="evenodd"/><path d="M364.725 221.001 491.292 221.001 491.292 239.812 364.725 239.812Z" fill="#4472C4" fill-rule="evenodd"/><path d="M221.032 239.812 364.725 239.812 364.725 266.629 221.032 266.629Z" fill="#CFD5EA" fill-rule="evenodd"/><path d="M364.725 239.812 491.292 239.812 491.292 293.445 364.725 293.445Z" fill="#CFD5EA" fill-rule="evenodd"/><path d="M221.032 266.629 364.725 266.629 364.725 293.445 221.032 293.445Z" fill="#E9EBF5" fill-rule="evenodd"/><path d="M364.725 220.334 364.725 294.112" stroke="#FFFFFF" stroke-width="1.33363" stroke-linejoin="round" stroke-miterlimit="10" fill="none" fill-rule="evenodd"/><path d="M220.365 239.812 491.959 239.812" stroke="#FFFFFF" stroke-width="4.00088" stroke-linejoin="round" stroke-miterlimit="10" fill="none" fill-rule="evenodd"/><path d="M220.365 266.629 365.391 266.629" stroke="#FFFFFF" stroke-width="1.33363" stroke-linejoin="round" stroke-miterlimit="10" fill="none" fill-rule="evenodd"/><path d="M221.032 220.334 221.032 294.112" stroke="#FFFFFF" stroke-width="1.33363" stroke-linejoin="round" stroke-miterlimit="10" fill="none" fill-rule="evenodd"/><path d="M491.292 220.334 491.292 294.112" stroke="#FFFFFF" stroke-width="1.33363" stroke-linejoin="round" stroke-miterlimit="10" fill="none" fill-rule="evenodd"/><path d="M220.365 221.001 491.959 221.001" stroke="#FFFFFF" stroke-width="1.33363" stroke-linejoin="round" stroke-miterlimit="10" fill="none" fill-rule="evenodd"/><path d="M220.365 293.445 491.959 293.445" stroke="#FFFFFF" stroke-width="1.33363" stroke-linejoin="round" stroke-miterlimit="10" fill="none" fill-rule="evenodd"/><text fill="#FFFFFF" font-family="DengXian,DengXian_MSFontService,sans-serif" font-weight="700" font-size="6.67044" transform="matrix(1 0 0 1.00034 408.004 232)">宣传推介情况</text><text fill="#FFFFFF" font-family="DengXian,DengXian_MSFontService,sans-serif" font-weight="700" font-size="6.67044" transform="matrix(1 0 0 1.00034 249.535 232)">知名学者、重要期刊引用情况</text><text font-family="DengXian,DengXian_MSFontService,sans-serif" font-weight="700" font-size="6.67044" transform="matrix(1 0 0 1.00034 375.528 259)">被当当、百度百科、中国科学院文</text><text font-family="DengXian,DengXian_MSFontService,sans-serif" font-weight="700" font-size="6.67044" transform="matrix(1 0 0 1.00034 375.528 267)">献情报中心等宣传与收藏</text><text font-family="DengXian,DengXian_MSFontService,sans-serif" font-weight="700" font-size="6.67044" transform="matrix(1 0 0 1.00034 231.835 251)">观点被多个学科著名学者在权威学术期刊</text><text font-family="DengXian,DengXian_MSFontService,sans-serif" font-weight="700" font-size="6.67044" transform="matrix(1 0 0 1.00034 231.835 259)">引用，如鲍静、段尧清等</text><text font-family="DengXian,DengXian_MSFontService,sans-serif" font-weight="700" font-size="6.67044" transform="matrix(1 0 0 1.00034 231.835 278)">观点被多个学科权威学术期刊引用，中国</text><text font-family="DengXian,DengXian_MSFontService,sans-serif" font-weight="700" font-size="6.67044" transform="matrix(1 0 0 1.00034 231.835 286)">软科学、大学图书馆学报等</text><rect x="208" y="112.039" width="102" height="17.0058" fill="#B4C7E7"/><text fill="#203864" font-family="DengXian,DengXian_MSFontService,sans-serif" font-weight="400" font-size="6.67044" transform="matrix(1 0 0 1.00034 245.939 123)">范式创新</text><rect x="208" y="174.06" width="102" height="17.0058" fill="#B4C7E7"/><text fill="#203864" font-family="DengXian,DengXian_MSFontService,sans-serif" font-weight="400" font-size="6.67044" transform="matrix(1 0 0 1.00034 222.581 185)">现状探究及渠道选择模式</text><rect x="415" y="113.039" width="106" height="17.0058" fill="#B4C7E7"/><text fill="#203864" font-family="DengXian,DengXian_MSFontService,sans-serif" font-weight="400" font-size="6.67044" transform="matrix(1 0 0 1.00034 431.228 124)">渠道选择及使用意愿模型</text><rect x="415" y="174.06" width="106" height="17.0058" fill="#B4C7E7"/><text fill="#203864" font-family="DengXian,DengXian_MSFontService,sans-serif" font-weight="400" font-size="6.67044" transform="matrix(1 0 0 1.00034 424.394 185)">策略创新基本方向和具体途径</text><path d="M555.572 107.425 721.055 107.425 721.055 126.237 555.572 126.237Z" fill="#4472C4" fill-rule="evenodd"/><path d="M555.572 126.237 721.055 126.237 721.055 153.053 555.572 153.053Z" fill="#CFD5EA" fill-rule="evenodd"/><path d="M555.572 153.053 721.055 153.053 721.055 195.878 555.572 195.878Z" fill="#E9EBF5" fill-rule="evenodd"/><path d="M554.905 126.237 721.722 126.237" stroke="#FFFFFF" stroke-width="4.00088" stroke-linejoin="round" stroke-miterlimit="10" fill="none" fill-rule="evenodd"/><path d="M554.905 153.053 721.722 153.053" stroke="#FFFFFF" stroke-width="1.33363" stroke-linejoin="round" stroke-miterlimit="10" fill="none" fill-rule="evenodd"/><path d="M555.572 106.758 555.572 196.545" stroke="#FFFFFF" stroke-width="1.33363" stroke-linejoin="round" stroke-miterlimit="10" fill="none" fill-rule="evenodd"/><path d="M721.055 106.758 721.055 196.545" stroke="#FFFFFF" stroke-width="1.33363" stroke-linejoin="round" stroke-miterlimit="10" fill="none" fill-rule="evenodd"/><path d="M554.905 107.425 721.722 107.425" stroke="#FFFFFF" stroke-width="1.33363" stroke-linejoin="round" stroke-miterlimit="10" fill="none" fill-rule="evenodd"/><path d="M554.905 195.878 721.722 195.878" stroke="#FFFFFF" stroke-width="1.33363" stroke-linejoin="round" stroke-miterlimit="10" fill="none" fill-rule="evenodd"/><text fill="#FFFFFF" font-family="DengXian,DengXian_MSFontService,sans-serif" font-weight="700" font-size="6.67044" transform="matrix(1 0 0 1.00034 596.137 119)">权威期刊（</text><text fill="#FFFFFF" font-family="DengXian,DengXian_MSFontService,sans-serif" font-weight="700" font-size="6.67044" transform="matrix(1 0 0 1.00034 629.478 119)">CSSCI</text><text fill="#FFFFFF" font-family="DengXian,DengXian_MSFontService,sans-serif" font-weight="700" font-size="6.67044" transform="matrix(1 0 0 1.00034 647.149 119)">）观点摘登</text><text font-family="DengXian,DengXian_MSFontService,sans-serif" font-weight="700" font-size="6.67044" transform="matrix(1 0 0 1.00034 566.376 138)">第六章第一节部分由现代情报（</text><text font-family="DengXian,DengXian_MSFontService,sans-serif" font-weight="700" font-size="6.67044" transform="matrix(1 0 0 1.00034 659.729 138)">CSSCI</text><text font-family="DengXian,DengXian_MSFontService,sans-serif" font-weight="700" font-size="6.67044" transform="matrix(1 0 0 1.00034 677.4 138)">）摘登，</text><text font-family="DengXian,DengXian_MSFontService,sans-serif" font-weight="700" font-size="6.67044" transform="matrix(1 0 0 1.00034 566.376 146)">2019(11)</text><text font-family="DengXian,DengXian_MSFontService,sans-serif" font-weight="700" font-size="6.67044" transform="matrix(1 0 0 1.00034 566.376 165)">部分内容由权威期刊电子政务，</text><text font-family="DengXian,DengXian_MSFontService,sans-serif" font-weight="700" font-size="6.67044" transform="matrix(1 0 0 1.00034 659.729 165)">2022(9)</text><text font-family="DengXian,DengXian_MSFontService,sans-serif" font-weight="700" font-size="6.67044" transform="matrix(1 0 0 1.00034 682.401 165)">；现代情</text><text font-family="DengXian,DengXian_MSFontService,sans-serif" font-weight="700" font-size="6.67044" transform="matrix(1 0 0 1.00034 566.376 173)">报，</text><text font-family="DengXian,DengXian_MSFontService,sans-serif" font-weight="700" font-size="6.67044" transform="matrix(1 0 0 1.00034 579.712 173)">2021(10)</text><text font-family="DengXian,DengXian_MSFontService,sans-serif" font-weight="700" font-size="6.67044" transform="matrix(1 0 0 1.00034 606.051 173)">；现代情报，</text><text font-family="DengXian,DengXian_MSFontService,sans-serif" font-weight="700" font-size="6.67044" transform="matrix(1 0 0 1.00034 646.06 173)">2018</text><text font-family="DengXian,DengXian_MSFontService,sans-serif" font-weight="700" font-size="6.67044" transform="matrix(1 0 0 1.00034 660.73 173)">（</text><text font-family="DengXian,DengXian_MSFontService,sans-serif" font-weight="700" font-size="6.67044" transform="matrix(1 0 0 1.00034 667.398 173)">12</text><text font-family="DengXian,DengXian_MSFontService,sans-serif" font-weight="700" font-size="6.67044" transform="matrix(1 0 0 1.00034 674.733 173)">）；现代情</text><text font-family="DengXian,DengXian_MSFontService,sans-serif" font-weight="700" font-size="6.67044" transform="matrix(1 0 0 1.00034 566.376 181)">报，</text><text font-family="DengXian,DengXian_MSFontService,sans-serif" font-weight="700" font-size="6.67044" transform="matrix(1 0 0 1.00034 579.712 181)">2018</text><text font-family="DengXian,DengXian_MSFontService,sans-serif" font-weight="700" font-size="6.67044" transform="matrix(1 0 0 1.00034 594.382 181)">（</text><text font-family="DengXian,DengXian_MSFontService,sans-serif" font-weight="700" font-size="6.67044" transform="matrix(1 0 0 1.00034 601.05 181)">5</text><text font-family="DengXian,DengXian_MSFontService,sans-serif" font-weight="700" font-size="6.67044" transform="matrix(1 0 0 1.00034 604.717 181)">）；现代情报，</text><text font-family="DengXian,DengXian_MSFontService,sans-serif" font-weight="700" font-size="6.67044" transform="matrix(1 0 0 1.00034 651.394 181)">2017</text><text font-family="DengXian,DengXian_MSFontService,sans-serif" font-weight="700" font-size="6.67044" transform="matrix(1 0 0 1.00034 666.064 181)">（</text><text font-family="DengXian,DengXian_MSFontService,sans-serif" font-weight="700" font-size="6.67044" transform="matrix(1 0 0 1.00034 672.732 181)">9</text><text font-family="DengXian,DengXian_MSFontService,sans-serif" font-weight="700" font-size="6.67044" transform="matrix(1 0 0 1.00034 676.4 181)">）；现代情</text><text font-family="DengXian,DengXian_MSFontService,sans-serif" font-weight="700" font-size="6.67044" transform="matrix(1 0 0 1.00034 566.376 189)">报，</text><text font-family="DengXian,DengXian_MSFontService,sans-serif" font-weight="700" font-size="6.67044" transform="matrix(1 0 0 1.00034 579.712 189)">2017</text><text font-family="DengXian,DengXian_MSFontService,sans-serif" font-weight="700" font-size="6.67044" transform="matrix(1 0 0 1.00034 594.382 189)">（</text><text font-family="DengXian,DengXian_MSFontService,sans-serif" font-weight="700" font-size="6.67044" transform="matrix(1 0 0 1.00034 601.05 189)">5</text><text font-family="DengXian,DengXian_MSFontService,sans-serif" font-weight="700" font-size="6.67044" transform="matrix(1 0 0 1.00034 604.717 189)">）观点摘登</text><path d="M315.5 137.881C315.5 133.829 318.783 130.545 322.833 130.545L405.167 130.545C409.217 130.545 412.5 133.829 412.5 137.881L412.5 167.224C412.5 171.276 409.217 174.56 405.167 174.56L322.833 174.56C318.783 174.56 315.5 171.276 315.5 167.224Z" stroke="#172C51" stroke-width="1.33363" stroke-miterlimit="8" fill="#4472C4" fill-rule="evenodd"/><text fill="#FFFFFF" font-family="DengXian,DengXian_MSFontService,sans-serif" font-weight="700" font-size="10.6727" transform="matrix(1 0 0 1.00034 331.092 143)">公众获取政府</text><text fill="#FFFFFF" font-family="DengXian,DengXian_MSFontService,sans-serif" font-weight="700" font-size="10.6727" transform="matrix(1 0 0 1.00034 331.092 156)">信息渠道选择</text><text fill="#FFFFFF" font-family="DengXian,DengXian_MSFontService,sans-serif" font-weight="700" font-size="10.6727" transform="matrix(1 0 0 1.00034 336.426 169)">及策略研究</text></g></svg>