<svg width="756" height="295" xmlns="http://www.w3.org/2000/svg" xmlns:xlink="http://www.w3.org/1999/xlink" overflow="hidden"><defs><clipPath id="clip0"><rect x="0" y="0" width="756" height="295"/></clipPath></defs><g clip-path="url(#clip0)"><rect x="0" y="0" width="756" height="295.102" fill="#FFFFFF"/><path d="M8.33491e-05-0.666814 136.99-0.64969 136.99 0.683937-8.33491e-05 0.666814ZM135.657-3.98393 143.658 0.0179567 135.656 4.01784Z" fill="#5B9BD5" transform="matrix(1 0 0 -1.00034 410.5 137.565)"/><path d="M164.5 136.88 306.792 136.898 306.792 138.232 164.5 138.214ZM305.459 133.562 313.461 137.565 305.458 141.567Z" fill="#5B9BD5"/><path d="M364.167 160.555 364.167 200.417 362.833 200.417 362.833 160.555ZM367.501 199.083 363.5 207.087 359.499 199.083Z" fill="#5B9BD5"/><path d="M0.666703-0.0121233 1.37085 38.7113 0.0374423 38.7356-0.666703 0.0121233ZM4.68012 37.3173 0.825379 45.3905-3.32032 37.4628Z" fill="#5B9BD5" transform="matrix(1 0 0 -1.00034 362.5 114.93)"/><rect x="202.5" y="91.5315" width="321" height="90.031" stroke="#000000" stroke-width="1.33363" stroke-miterlimit="8" stroke-dasharray="5.33451 4.00088" fill="none"/><path d="M36.679 81.2986 171.24 81.2986 171.24 101.711 36.679 101.711Z" fill="#4472C4" fill-rule="evenodd"/><path d="M36.679 101.711 171.24 101.711 171.24 141.335 36.679 141.335Z" fill="#CFD5EA" fill-rule="evenodd"/><path d="M36.679 141.335 171.24 141.335 171.24 180.958 36.679 180.958Z" fill="#E9EBF5" fill-rule="evenodd"/><path d="M36.0121 101.711 171.907 101.711" stroke="#FFFFFF" stroke-width="4.00088" stroke-linejoin="round" stroke-miterlimit="10" fill="none" fill-rule="evenodd"/><path d="M36.0121 141.335 171.907 141.335" stroke="#FFFFFF" stroke-width="1.33363" stroke-linejoin="round" stroke-miterlimit="10" fill="none" fill-rule="evenodd"/><path d="M36.679 80.6316 36.679 181.625" stroke="#FFFFFF" stroke-width="1.33363" stroke-linejoin="round" stroke-miterlimit="10" fill="none" fill-rule="evenodd"/><path d="M171.24 80.6316 171.24 181.625" stroke="#FFFFFF" stroke-width="1.33363" stroke-linejoin="round" stroke-miterlimit="10" fill="none" fill-rule="evenodd"/><path d="M36.0121 81.2986 171.907 81.2986" stroke="#FFFFFF" stroke-width="1.33363" stroke-linejoin="round" stroke-miterlimit="10" fill="none" fill-rule="evenodd"/><path d="M36.0121 180.958 171.907 180.958" stroke="#FFFFFF" stroke-width="1.33363" stroke-linejoin="round" stroke-miterlimit="10" fill="none" fill-rule="evenodd"/><text fill="#FFFFFF" font-family="DengXian,DengXian_MSFontService,sans-serif" font-weight="700" font-size="8.00452" transform="matrix(1 0 0 1.00034 79.9544 94)">学科立项情况</text><text font-family="DengXian,DengXian_MSFontService,sans-serif" font-weight="700" font-size="8.00452" transform="matrix(1 0 0 1.00034 47.4827 114)">国家社会科学基金项目</text><text font-family="DengXian,DengXian_MSFontService,sans-serif" font-weight="400" font-size="8.00452" transform="matrix(1 0 0 1.00034 47.4827 124)">公众选择导向的政府信息公开渠</text><text font-family="DengXian,DengXian_MSFontService,sans-serif" font-weight="400" font-size="8.00452" transform="matrix(1 0 0 1.00034 47.4827 134)">道管理创新研究</text><text font-family="DengXian,DengXian_MSFontService,sans-serif" font-weight="700" font-size="8.00452" transform="matrix(1 0 0 1.00034 47.4827 154)">湖南省社科基金重点项目</text><text font-family="DengXian,DengXian_MSFontService,sans-serif" font-weight="400" font-size="8.00452" transform="matrix(1 0 0 1.00034 47.4827 164)">基于多源数据融合的政府信息公</text><text font-family="DengXian,DengXian_MSFontService,sans-serif" font-weight="400" font-size="8.00452" transform="matrix(1 0 0 1.00034 47.4827 174)">众需求探测研究</text><rect x="182.5" y="124.543" width="38" height="26.0089" stroke="#172C51" stroke-width="1.33363" stroke-miterlimit="8" fill="#4472C4"/><text fill="#FFFFFF" font-family="DengXian,DengXian_MSFontService,sans-serif" font-weight="400" font-size="8.00452" transform="matrix(1 0 0 1.00034 193.199 134)">立项</text><text fill="#FFFFFF" font-family="DengXian,DengXian_MSFontService,sans-serif" font-weight="400" font-size="8.00452" transform="matrix(1 0 0 1.00034 193.199 144)">情况</text><path d="M155.234 7.07066 362.88 7.07066 362.88 27.4832 155.234 27.4832Z" fill="#4472C4" fill-rule="evenodd"/><path d="M362.88 7.07066 560.857 7.07066 560.857 27.4832 362.88 27.4832Z" fill="#4472C4" fill-rule="evenodd"/><path d="M155.234 27.4832 362.88 27.4832 362.88 47.8958 155.234 47.8958Z" fill="#CFD5EA" fill-rule="evenodd"/><path d="M362.88 27.4832 560.857 27.4832 560.857 68.3084 362.88 68.3084Z" fill="#CFD5EA" fill-rule="evenodd"/><path d="M155.234 47.8958 362.88 47.8958 362.88 68.3084 155.234 68.3084Z" fill="#E9EBF5" fill-rule="evenodd"/><path d="M362.88 6.40362 362.88 68.9754" stroke="#FFFFFF" stroke-width="1.33363" stroke-linejoin="round" stroke-miterlimit="10" fill="none" fill-rule="evenodd"/><path d="M154.567 27.4832 561.524 27.4832" stroke="#FFFFFF" stroke-width="4.00088" stroke-linejoin="round" stroke-miterlimit="10" fill="none" fill-rule="evenodd"/><path d="M154.567 47.8958 363.547 47.8958" stroke="#FFFFFF" stroke-width="1.33363" stroke-linejoin="round" stroke-miterlimit="10" fill="none" fill-rule="evenodd"/><path d="M155.234 6.40362 155.234 68.9754" stroke="#FFFFFF" stroke-width="1.33363" stroke-linejoin="round" stroke-miterlimit="10" fill="none" fill-rule="evenodd"/><path d="M560.857 6.40362 560.857 68.9754" stroke="#FFFFFF" stroke-width="1.33363" stroke-linejoin="round" stroke-miterlimit="10" fill="none" fill-rule="evenodd"/><path d="M154.567 7.07066 561.524 7.07066" stroke="#FFFFFF" stroke-width="1.33363" stroke-linejoin="round" stroke-miterlimit="10" fill="none" fill-rule="evenodd"/><path d="M154.567 68.3084 561.524 68.3084" stroke="#FFFFFF" stroke-width="1.33363" stroke-linejoin="round" stroke-miterlimit="10" fill="none" fill-rule="evenodd"/><text fill="#FFFFFF" font-family="DengXian,DengXian_MSFontService,sans-serif" font-weight="700" font-size="8.00452" transform="matrix(1 0 0 1.00034 389.853 19)">权威期刊发表摘登又被权威期刊引用情况</text><text fill="#FFFFFF" font-family="DengXian,DengXian_MSFontService,sans-serif" font-weight="700" font-size="8.00452" transform="matrix(1 0 0 1.00034 208.546 19)">权威期刊（</text><text fill="#FFFFFF" font-family="DengXian,DengXian_MSFontService,sans-serif" font-weight="700" font-size="8.00452" transform="matrix(1 0 0 1.00034 248.555 19)">CSSCI</text><text fill="#FFFFFF" font-family="DengXian,DengXian_MSFontService,sans-serif" font-weight="700" font-size="8.00452" transform="matrix(1 0 0 1.00034 269.559 19)">）全文发表</text><text font-family="DengXian,DengXian_MSFontService,sans-serif" font-weight="700" font-size="8.00452" transform="matrix(1 0 0 1.00034 373.684 40)">第二、三、四、五、六章部分由</text><text font-family="DengXian,DengXian_MSFontService,sans-serif" font-weight="700" font-size="8.00452" transform="matrix(1 0 0 1.00034 485.708 40)">CSSCI</text><text font-family="DengXian,DengXian_MSFontService,sans-serif" font-weight="700" font-size="8.00452" transform="matrix(1 0 0 1.00034 506.713 40)">源刊论文发</text><text font-family="DengXian,DengXian_MSFontService,sans-serif" font-weight="700" font-size="8.00452" transform="matrix(1 0 0 1.00034 373.684 50)">表摘登，</text><text font-family="DengXian,DengXian_MSFontService,sans-serif" font-weight="700" font-size="8.00452" transform="matrix(1 0 0 1.00034 405.691 50)">2017</text><text font-family="DengXian,DengXian_MSFontService,sans-serif" font-weight="700" font-size="8.00452" transform="matrix(1 0 0 1.00034 423.695 50)">-</text><text font-family="DengXian,DengXian_MSFontService,sans-serif" font-weight="700" font-size="8.00452" transform="matrix(1 0 0 1.00034 427.696 50)">2023</text><text font-family="DengXian,DengXian_MSFontService,sans-serif" font-weight="700" font-size="8.00452" transform="matrix(1 0 0 1.00034 445.7 50)">年期间，该引文又被</text><text font-family="DengXian,DengXian_MSFontService,sans-serif" font-weight="700" font-size="8.00452" transform="matrix(1 0 0 1.00034 517.716 50)">CSSCI</text><text font-family="DengXian,DengXian_MSFontService,sans-serif" font-weight="700" font-size="8.00452" transform="matrix(1 0 0 1.00034 538.72 50)">期</text><text font-family="DengXian,DengXian_MSFontService,sans-serif" font-weight="700" font-size="8.00452" transform="matrix(1 0 0 1.00034 373.684 60)">刊引用</text><text font-family="DengXian,DengXian_MSFontService,sans-serif" font-weight="700" font-size="8.00452" transform="matrix(1 0 0 1.00034 397.689 60)">34</text><text font-family="DengXian,DengXian_MSFontService,sans-serif" font-weight="700" font-size="8.00452" transform="matrix(1 0 0 1.00034 406.691 60)">次，国内一级出版单位著作引用</text><text font-family="DengXian,DengXian_MSFontService,sans-serif" font-weight="700" font-size="8.00452" transform="matrix(1 0 0 1.00034 518.716 60)">2</text><text font-family="DengXian,DengXian_MSFontService,sans-serif" font-weight="700" font-size="8.00452" transform="matrix(1 0 0 1.00034 523.217 60)">次</text><text font-family="DengXian,DengXian_MSFontService,sans-serif" font-weight="700" font-size="8.00452" transform="matrix(1 0 0 1.00034 166.038 40)">第三章由权威期刊情报资料工作全文发表，</text><text font-family="DengXian,DengXian_MSFontService,sans-serif" font-weight="700" font-size="8.00452" transform="matrix(1 0 0 1.00034 318.072 40)">2017</text><text font-family="DengXian,DengXian_MSFontService,sans-serif" font-weight="700" font-size="8.00452" transform="matrix(1 0 0 1.00034 336.075 40)">（</text><text font-family="DengXian,DengXian_MSFontService,sans-serif" font-weight="700" font-size="8.00452" transform="matrix(1 0 0 1.00034 344.077 40)">2</text><text font-family="DengXian,DengXian_MSFontService,sans-serif" font-weight="700" font-size="8.00452" transform="matrix(1 0 0 1.00034 348.578 40)">）</text><text font-family="DengXian,DengXian_MSFontService,sans-serif" font-weight="700" font-size="8.00452" transform="matrix(1 0 0 1.00034 166.038 60)">第四章由权威期刊情报资料工作全文发表，</text><text font-family="DengXian,DengXian_MSFontService,sans-serif" font-weight="700" font-size="8.00452" transform="matrix(1 0 0 1.00034 318.072 60)">2018</text><text font-family="DengXian,DengXian_MSFontService,sans-serif" font-weight="700" font-size="8.00452" transform="matrix(1 0 0 1.00034 336.075 60)">（</text><text font-family="DengXian,DengXian_MSFontService,sans-serif" font-weight="700" font-size="8.00452" transform="matrix(1 0 0 1.00034 344.077 60)">2</text><text font-family="DengXian,DengXian_MSFontService,sans-serif" font-weight="700" font-size="8.00452" transform="matrix(1 0 0 1.00034 348.578 60)">）</text><rect x="345.5" y="81.5281" width="38" height="27.0094" stroke="#172C51" stroke-width="1.33363" stroke-miterlimit="8" fill="#4472C4"/><text fill="#FFFFFF" font-family="DengXian,DengXian_MSFontService,sans-serif" font-weight="400" font-size="8.00452" transform="matrix(1 0 0 1.00034 355.643 92)">引用</text><text fill="#FFFFFF" font-family="DengXian,DengXian_MSFontService,sans-serif" font-weight="400" font-size="8.00452" transform="matrix(1 0 0 1.00034 355.643 102)">转载</text><rect x="345.5" y="167.558" width="38" height="26.0089" stroke="#172C51" stroke-width="1.33363" stroke-miterlimit="8" fill="#4472C4"/><text fill="#FFFFFF" font-family="DengXian,DengXian_MSFontService,sans-serif" font-weight="400" font-size="8.00452" transform="matrix(1 0 0 1.00034 355.643 177)">其他</text><text fill="#FFFFFF" font-family="DengXian,DengXian_MSFontService,sans-serif" font-weight="400" font-size="8.00452" transform="matrix(1 0 0 1.00034 355.643 187)">情况</text><rect x="504.5" y="121.542" width="38" height="27.0094" stroke="#172C51" stroke-width="1.33363" stroke-miterlimit="8" fill="#4472C4"/><text fill="#FFFFFF" font-family="DengXian,DengXian_MSFontService,sans-serif" font-weight="400" font-size="8.00452" transform="matrix(1 0 0 1.00034 515.37 132)">引用</text><text fill="#FFFFFF" font-family="DengXian,DengXian_MSFontService,sans-serif" font-weight="400" font-size="8.00452" transform="matrix(1 0 0 1.00034 515.37 142)">转载</text><path d="M219.765 206.126 363.458 206.126 363.458 226.538 219.765 226.538Z" fill="#4472C4" fill-rule="evenodd"/><path d="M363.458 206.126 490.025 206.126 490.025 226.538 363.458 226.538Z" fill="#4472C4" fill-rule="evenodd"/><path d="M219.765 226.538 363.458 226.538 363.458 256.556 219.765 256.556Z" fill="#CFD5EA" fill-rule="evenodd"/><path d="M363.458 226.538 490.025 226.538 490.025 286.574 363.458 286.574Z" fill="#CFD5EA" fill-rule="evenodd"/><path d="M219.765 256.556 363.458 256.556 363.458 286.574 219.765 286.574Z" fill="#E9EBF5" fill-rule="evenodd"/><path d="M363.458 205.459 363.458 287.241" stroke="#FFFFFF" stroke-width="1.33363" stroke-linejoin="round" stroke-miterlimit="10" fill="none" fill-rule="evenodd"/><path d="M219.098 226.538 490.692 226.538" stroke="#FFFFFF" stroke-width="4.00088" stroke-linejoin="round" stroke-miterlimit="10" fill="none" fill-rule="evenodd"/><path d="M219.098 256.556 364.124 256.556" stroke="#FFFFFF" stroke-width="1.33363" stroke-linejoin="round" stroke-miterlimit="10" fill="none" fill-rule="evenodd"/><path d="M219.765 205.459 219.765 287.241" stroke="#FFFFFF" stroke-width="1.33363" stroke-linejoin="round" stroke-miterlimit="10" fill="none" fill-rule="evenodd"/><path d="M490.025 205.459 490.025 287.241" stroke="#FFFFFF" stroke-width="1.33363" stroke-linejoin="round" stroke-miterlimit="10" fill="none" fill-rule="evenodd"/><path d="M219.098 206.126 490.692 206.126" stroke="#FFFFFF" stroke-width="1.33363" stroke-linejoin="round" stroke-miterlimit="10" fill="none" fill-rule="evenodd"/><path d="M219.098 286.574 490.692 286.574" stroke="#FFFFFF" stroke-width="1.33363" stroke-linejoin="round" stroke-miterlimit="10" fill="none" fill-rule="evenodd"/><text fill="#FFFFFF" font-family="DengXian,DengXian_MSFontService,sans-serif" font-weight="700" font-size="8.00452" transform="matrix(1 0 0 1.00034 402.736 219)">宣传推介情况</text><text fill="#FFFFFF" font-family="DengXian,DengXian_MSFontService,sans-serif" font-weight="700" font-size="8.00452" transform="matrix(1 0 0 1.00034 239.6 219)">知名学者、重要期刊引用情况</text><text font-family="DengXian,DengXian_MSFontService,sans-serif" font-weight="700" font-size="8.00452" transform="matrix(1 0 0 1.00034 374.261 249)">被当当、百度百科、中国科学</text><text font-family="DengXian,DengXian_MSFontService,sans-serif" font-weight="700" font-size="8.00452" transform="matrix(1 0 0 1.00034 374.261 259)">院文献情报中心等宣传与收藏</text><text font-family="DengXian,DengXian_MSFontService,sans-serif" font-weight="700" font-size="8.00452" transform="matrix(1 0 0 1.00034 230.568 239)">观点被多个学科著名学者在权威学</text><text font-family="DengXian,DengXian_MSFontService,sans-serif" font-weight="700" font-size="8.00452" transform="matrix(1 0 0 1.00034 230.568 249)">术期刊引用，如鲍静、段尧清等</text><g><text font-family="DengXian,DengXian_MSFontService,sans-serif" font-weight="700" font-size="8.00452" transform="matrix(1 0 0 1.00034 230.568 269)">观点被多个学科权威学术期刊引用，</text></g><text font-family="DengXian,DengXian_MSFontService,sans-serif" font-weight="700" font-size="8.00452" transform="matrix(1 0 0 1.00034 230.568 279)">中国软科学、大学图书馆学报等</text><rect x="207" y="97.0334" width="102" height="17.0059" fill="#B4C7E7"/><text fill="#203864" font-family="DengXian,DengXian_MSFontService,sans-serif" font-weight="400" font-size="7.33748" transform="matrix(1 0 0 1.00034 243.338 108)">范式创新</text><rect x="207" y="160.055" width="102" height="17.0058" fill="#B4C7E7"/><text fill="#203864" font-family="DengXian,DengXian_MSFontService,sans-serif" font-weight="400" font-size="7.33748" transform="matrix(1 0 0 1.00034 217.646 171)">现状探究及渠道选择模式</text><rect x="419" y="98.0338" width="102" height="17.0059" fill="#B4C7E7"/><text fill="#203864" font-family="DengXian,DengXian_MSFontService,sans-serif" font-weight="400" font-size="7.33748" transform="matrix(1 0 0 1.00034 429.985 109)">渠道选择及使用意愿模型</text><rect x="420" y="160.055" width="102" height="17.0058" fill="#B4C7E7"/><text fill="#203864" font-family="DengXian,DengXian_MSFontService,sans-serif" font-weight="400" font-size="7.33748" transform="matrix(1 0 0 1.00034 430.252 171)">创新基本方向和具体途径</text><path d="M554.305 81.2105 719.788 81.2105 719.788 101.623 554.305 101.623Z" fill="#4472C4" fill-rule="evenodd"/><path d="M554.305 101.623 719.788 101.623 719.788 131.641 554.305 131.641Z" fill="#CFD5EA" fill-rule="evenodd"/><path d="M554.305 131.641 719.788 131.641 719.788 190.475 554.305 190.475Z" fill="#E9EBF5" fill-rule="evenodd"/><path d="M553.638 101.623 720.455 101.623" stroke="#FFFFFF" stroke-width="4.00088" stroke-linejoin="round" stroke-miterlimit="10" fill="none" fill-rule="evenodd"/><path d="M553.638 131.641 720.455 131.641" stroke="#FFFFFF" stroke-width="1.33363" stroke-linejoin="round" stroke-miterlimit="10" fill="none" fill-rule="evenodd"/><path d="M554.305 80.5435 554.305 191.142" stroke="#FFFFFF" stroke-width="1.33363" stroke-linejoin="round" stroke-miterlimit="10" fill="none" fill-rule="evenodd"/><path d="M719.788 80.5435 719.788 191.142" stroke="#FFFFFF" stroke-width="1.33363" stroke-linejoin="round" stroke-miterlimit="10" fill="none" fill-rule="evenodd"/><path d="M553.638 81.2105 720.455 81.2105" stroke="#FFFFFF" stroke-width="1.33363" stroke-linejoin="round" stroke-miterlimit="10" fill="none" fill-rule="evenodd"/><path d="M553.638 190.475 720.455 190.475" stroke="#FFFFFF" stroke-width="1.33363" stroke-linejoin="round" stroke-miterlimit="10" fill="none" fill-rule="evenodd"/><text fill="#FFFFFF" font-family="DengXian,DengXian_MSFontService,sans-serif" font-weight="700" font-size="8.00452" transform="matrix(1 0 0 1.00034 586.535 94)">权威期刊（</text><text fill="#FFFFFF" font-family="DengXian,DengXian_MSFontService,sans-serif" font-weight="700" font-size="8.00452" transform="matrix(1 0 0 1.00034 626.544 94)">CSSCI</text><text fill="#FFFFFF" font-family="DengXian,DengXian_MSFontService,sans-serif" font-weight="700" font-size="8.00452" transform="matrix(1 0 0 1.00034 647.549 94)">）观点摘登</text><text font-family="DengXian,DengXian_MSFontService,sans-serif" font-weight="700" font-size="8.00452" transform="matrix(1 0 0 1.00034 565.109 114)">第六章第一节部分由现代情报（</text><text font-family="DengXian,DengXian_MSFontService,sans-serif" font-weight="700" font-size="8.00452" transform="matrix(1 0 0 1.00034 677.133 114)">CSSCI</text><text font-family="DengXian,DengXian_MSFontService,sans-serif" font-weight="700" font-size="8.00452" transform="matrix(1 0 0 1.00034 698.138 114)">）</text><text font-family="DengXian,DengXian_MSFontService,sans-serif" font-weight="700" font-size="8.00452" transform="matrix(1 0 0 1.00034 565.109 124)">摘登，</text><text font-family="DengXian,DengXian_MSFontService,sans-serif" font-weight="700" font-size="8.00452" transform="matrix(1 0 0 1.00034 589.114 124)">2019(11)</text><text font-family="DengXian,DengXian_MSFontService,sans-serif" font-weight="700" font-size="8.00452" transform="matrix(1 0 0 1.00034 565.109 144)">部分内容由权威期刊电子政务，</text><text font-family="DengXian,DengXian_MSFontService,sans-serif" font-weight="700" font-size="8.00452" transform="matrix(1 0 0 1.00034 677.133 144)">2022(9)</text><text font-family="DengXian,DengXian_MSFontService,sans-serif" font-weight="700" font-size="8.00452" transform="matrix(1 0 0 1.00034 704.973 144)">；</text><text font-family="DengXian,DengXian_MSFontService,sans-serif" font-weight="700" font-size="8.00452" transform="matrix(1 0 0 1.00034 565.109 154)">现代情报，</text><text font-family="DengXian,DengXian_MSFontService,sans-serif" font-weight="700" font-size="8.00452" transform="matrix(1 0 0 1.00034 605.117 154)">2021(10)</text><text font-family="DengXian,DengXian_MSFontService,sans-serif" font-weight="700" font-size="8.00452" transform="matrix(1 0 0 1.00034 637.458 154)">；现代情报，</text><text font-family="DengXian,DengXian_MSFontService,sans-serif" font-weight="700" font-size="8.00452" transform="matrix(1 0 0 1.00034 685.469 154)">2018</text><text font-family="DengXian,DengXian_MSFontService,sans-serif" font-weight="700" font-size="8.00452" transform="matrix(1 0 0 1.00034 565.109 164)">（</text><text font-family="DengXian,DengXian_MSFontService,sans-serif" font-weight="700" font-size="8.00452" transform="matrix(1 0 0 1.00034 573.11 164)">12</text><text font-family="DengXian,DengXian_MSFontService,sans-serif" font-weight="700" font-size="8.00452" transform="matrix(1 0 0 1.00034 582.112 164)">）；现代情报，</text><text font-family="DengXian,DengXian_MSFontService,sans-serif" font-weight="700" font-size="8.00452" transform="matrix(1 0 0 1.00034 638.125 164)">2018</text><text font-family="DengXian,DengXian_MSFontService,sans-serif" font-weight="700" font-size="8.00452" transform="matrix(1 0 0 1.00034 656.129 164)">（</text><text font-family="DengXian,DengXian_MSFontService,sans-serif" font-weight="700" font-size="8.00452" transform="matrix(1 0 0 1.00034 664.13 164)">5</text><text font-family="DengXian,DengXian_MSFontService,sans-serif" font-weight="700" font-size="8.00452" transform="matrix(1 0 0 1.00034 668.631 164)">）；现代情</text><text font-family="DengXian,DengXian_MSFontService,sans-serif" font-weight="700" font-size="8.00452" transform="matrix(1 0 0 1.00034 565.109 173)">报，</text><text font-family="DengXian,DengXian_MSFontService,sans-serif" font-weight="700" font-size="8.00452" transform="matrix(1 0 0 1.00034 581.112 173)">2017</text><text font-family="DengXian,DengXian_MSFontService,sans-serif" font-weight="700" font-size="8.00452" transform="matrix(1 0 0 1.00034 599.116 173)">（</text><text font-family="DengXian,DengXian_MSFontService,sans-serif" font-weight="700" font-size="8.00452" transform="matrix(1 0 0 1.00034 607.118 173)">9</text><text font-family="DengXian,DengXian_MSFontService,sans-serif" font-weight="700" font-size="8.00452" transform="matrix(1 0 0 1.00034 611.619 173)">）；现代情报，</text><text font-family="DengXian,DengXian_MSFontService,sans-serif" font-weight="700" font-size="8.00452" transform="matrix(1 0 0 1.00034 667.631 173)">2017</text><text font-family="DengXian,DengXian_MSFontService,sans-serif" font-weight="700" font-size="8.00452" transform="matrix(1 0 0 1.00034 685.635 173)">（</text><text font-family="DengXian,DengXian_MSFontService,sans-serif" font-weight="700" font-size="8.00452" transform="matrix(1 0 0 1.00034 693.637 173)">5</text><text font-family="DengXian,DengXian_MSFontService,sans-serif" font-weight="700" font-size="8.00452" transform="matrix(1 0 0 1.00034 698.138 173)">）</text><text font-family="DengXian,DengXian_MSFontService,sans-serif" font-weight="700" font-size="8.00452" transform="matrix(1 0 0 1.00034 565.109 183)">观点摘登</text><path d="M313.5 123.043C313.5 118.899 316.858 115.54 321 115.54L403 115.54C407.142 115.54 410.5 118.899 410.5 123.043L410.5 153.053C410.5 157.196 407.142 160.555 403 160.555L321 160.555C316.858 160.555 313.5 157.196 313.5 153.053Z" stroke="#172C51" stroke-width="1.33363" stroke-miterlimit="8" fill="#4472C4" fill-rule="evenodd"/><text fill="#FFFFFF" font-family="DengXian,DengXian_MSFontService,sans-serif" font-weight="700" font-size="10.6727" transform="matrix(1 0 0 1.00034 329.825 128)">公众获取政府</text><text fill="#FFFFFF" font-family="DengXian,DengXian_MSFontService,sans-serif" font-weight="700" font-size="10.6727" transform="matrix(1 0 0 1.00034 329.825 141)">信息渠道选择</text><text fill="#FFFFFF" font-family="DengXian,DengXian_MSFontService,sans-serif" font-weight="700" font-size="10.6727" transform="matrix(1 0 0 1.00034 335.159 154)">及策略研究</text></g></svg>