<svg width="756" height="378" xmlns="http://www.w3.org/2000/svg" xmlns:xlink="http://www.w3.org/1999/xlink" overflow="hidden"><g><rect x="0" y="0" width="756" height="377.917" fill="#FFFFFF"/><path d="M8.33246e-05-0.666667 136.97-0.649547 136.97 0.683786-8.33246e-05 0.666667ZM135.638-3.98305 143.637 0.0179528 135.637 4.01695Z" fill="#5B9BD5" transform="matrix(1.00022 0 0 -1 410.5 192.475)"/><path d="M165.5 191.791 307.803 191.808 307.803 193.141 165.5 193.124ZM306.47 188.475 314.471 192.475 306.469 196.475Z" fill="#5B9BD5"/><path d="M364.167 214.453 364.167 254.295 362.833 254.295 362.833 214.453ZM367.501 252.962 363.5 260.962 359.499 252.962Z" fill="#5B9BD5"/><path d="M0.666556-0.0121213 1.37065 38.706 0.0375322 38.7303-0.666556 0.0121213ZM4.67918 37.3123 0.825302 45.3837-3.31949 37.4578Z" fill="#5B9BD5" transform="matrix(1.00022 0 0 -1 362.5 169.856)"/><rect x="202.5" y="146.468" width="322" height="89.9802" stroke="#000000" stroke-width="1.33363" stroke-miterlimit="8" stroke-dasharray="5.33451 4.00088" fill="none"/><path d="M36.7457 135.961 171.242 135.961 171.242 156.362 36.7457 156.362Z" fill="#4472C4" fill-rule="evenodd"/><path d="M36.7457 156.362 171.242 156.362 171.242 195.964 36.7457 195.964Z" fill="#CFD5EA" fill-rule="evenodd"/><path d="M36.7457 195.964 171.242 195.964 171.242 235.565 36.7457 235.565Z" fill="#E9EBF5" fill-rule="evenodd"/><path d="M36.0789 156.362 171.909 156.362" stroke="#FFFFFF" stroke-width="4.00088" stroke-linejoin="round" stroke-miterlimit="10" fill="none" fill-rule="evenodd"/><path d="M36.0789 195.964 171.909 195.964" stroke="#FFFFFF" stroke-width="1.33363" stroke-linejoin="round" stroke-miterlimit="10" fill="none" fill-rule="evenodd"/><path d="M36.7457 135.294 36.7457 236.232" stroke="#FFFFFF" stroke-width="1.33363" stroke-linejoin="round" stroke-miterlimit="10" fill="none" fill-rule="evenodd"/><path d="M171.242 135.294 171.242 236.232" stroke="#FFFFFF" stroke-width="1.33363" stroke-linejoin="round" stroke-miterlimit="10" fill="none" fill-rule="evenodd"/><path d="M36.0789 135.961 171.909 135.961" stroke="#FFFFFF" stroke-width="1.33363" stroke-linejoin="round" stroke-miterlimit="10" fill="none" fill-rule="evenodd"/><path d="M36.0789 235.565 171.909 235.565" stroke="#FFFFFF" stroke-width="1.33363" stroke-linejoin="round" stroke-miterlimit="10" fill="none" fill-rule="evenodd"/><text fill="#FFFFFF" font-family="DengXian,DengXian_MSFontService,sans-serif" font-weight="700" font-size="8" transform="matrix(1 0 0 0.99978 87.9904 148)">学科立项</text><text font-family="DengXian,DengXian_MSFontService,sans-serif" font-weight="700" font-size="8" transform="matrix(1 0 0 0.99978 47.5502 169)">国家社会科学基金项目</text><text font-family="DengXian,DengXian_MSFontService,sans-serif" font-weight="400" font-size="8" transform="matrix(1 0 0 0.99978 47.5502 179)">公众选择导向的政府信息公开渠</text><text font-family="DengXian,DengXian_MSFontService,sans-serif" font-weight="400" font-size="8" transform="matrix(1 0 0 0.99978 47.5502 189)">道管理创新研究</text><text font-family="DengXian,DengXian_MSFontService,sans-serif" font-weight="700" font-size="8" transform="matrix(1 0 0 0.99978 47.5502 208)">湖南省社科基金重点项目</text><text font-family="DengXian,DengXian_MSFontService,sans-serif" font-weight="400" font-size="8" transform="matrix(1 0 0 0.99978 47.5502 218)">基于多源数据融合的政府信息公</text><text font-family="DengXian,DengXian_MSFontService,sans-serif" font-weight="400" font-size="8" transform="matrix(1 0 0 0.99978 47.5502 228)">众需求探测研究</text><rect x="182.5" y="178.461" width="38" height="26.994" stroke="#172C51" stroke-width="1.33363" stroke-miterlimit="8" fill="#4472C4"/><text fill="#FFFFFF" font-family="DengXian,DengXian_MSFontService,sans-serif" font-weight="400" font-size="8" transform="matrix(1 0 0 0.99978 193.278 189)">立项</text><text fill="#FFFFFF" font-family="DengXian,DengXian_MSFontService,sans-serif" font-weight="400" font-size="8" transform="matrix(1 0 0 0.99978 193.278 199)">情况</text><path d="M157.101 40.2667 363.88 40.2667 363.88 60.6681 157.101 60.6681Z" fill="#4472C4" fill-rule="evenodd"/><path d="M363.88 40.2667 598.532 40.2667 598.532 60.6681 363.88 60.6681Z" fill="#4472C4" fill-rule="evenodd"/><path d="M157.101 60.6681 363.88 60.6681 363.88 81.0696 157.101 81.0696Z" fill="#CFD5EA" fill-rule="evenodd"/><path d="M363.88 60.6681 598.532 60.6681 598.532 81.0696 363.88 81.0696Z" fill="#CFD5EA" fill-rule="evenodd"/><path d="M157.101 81.0696 363.88 81.0696 363.88 120.671 157.101 120.671Z" fill="#E9EBF5" fill-rule="evenodd"/><path d="M363.88 81.0696 598.532 81.0696 598.532 120.671 363.88 120.671Z" fill="#E9EBF5" fill-rule="evenodd"/><path d="M363.88 39.6 363.88 121.338" stroke="#FFFFFF" stroke-width="1.33363" stroke-linejoin="round" stroke-miterlimit="10" fill="none" fill-rule="evenodd"/><path d="M156.434 60.6681 599.199 60.6681" stroke="#FFFFFF" stroke-width="4.00088" stroke-linejoin="round" stroke-miterlimit="10" fill="none" fill-rule="evenodd"/><path d="M156.434 81.0696 599.199 81.0696" stroke="#FFFFFF" stroke-width="1.33363" stroke-linejoin="round" stroke-miterlimit="10" fill="none" fill-rule="evenodd"/><path d="M157.101 39.6 157.101 121.338" stroke="#FFFFFF" stroke-width="1.33363" stroke-linejoin="round" stroke-miterlimit="10" fill="none" fill-rule="evenodd"/><path d="M598.532 39.6 598.532 121.338" stroke="#FFFFFF" stroke-width="1.33363" stroke-linejoin="round" stroke-miterlimit="10" fill="none" fill-rule="evenodd"/><path d="M156.434 40.2667 599.199 40.2667" stroke="#FFFFFF" stroke-width="1.33363" stroke-linejoin="round" stroke-miterlimit="10" fill="none" fill-rule="evenodd"/><path d="M156.434 120.671 599.199 120.671" stroke="#FFFFFF" stroke-width="1.33363" stroke-linejoin="round" stroke-miterlimit="10" fill="none" fill-rule="evenodd"/><text fill="#FFFFFF" font-family="DengXian,DengXian_MSFontService,sans-serif" font-weight="700" font-size="8" transform="matrix(1 0 0 0.99978 430.695 53)">权威期刊（</text><text fill="#FFFFFF" font-family="DengXian,DengXian_MSFontService,sans-serif" font-weight="700" font-size="8" transform="matrix(1 0 0 0.99978 470.704 53)">CSSCI</text><text fill="#FFFFFF" font-family="DengXian,DengXian_MSFontService,sans-serif" font-weight="700" font-size="8" transform="matrix(1 0 0 0.99978 491.708 53)">）观点摘登</text><text fill="#FFFFFF" font-family="DengXian,DengXian_MSFontService,sans-serif" font-weight="700" font-size="8" transform="matrix(1 0 0 0.99978 209.98 53)">权威期刊（</text><text fill="#FFFFFF" font-family="DengXian,DengXian_MSFontService,sans-serif" font-weight="700" font-size="8" transform="matrix(1 0 0 0.99978 249.988 53)">CSSCI</text><text fill="#FFFFFF" font-family="DengXian,DengXian_MSFontService,sans-serif" font-weight="700" font-size="8" transform="matrix(1 0 0 0.99978 270.993 53)">）全文发表</text><text font-family="DengXian,DengXian_MSFontService,sans-serif" font-weight="700" font-size="8" transform="matrix(1 0 0 0.99978 374.685 73)">第六章第一节部分由现代情报（</text><text font-family="DengXian,DengXian_MSFontService,sans-serif" font-weight="700" font-size="8" transform="matrix(1 0 0 0.99978 486.709 73)">CSSCI</text><text font-family="DengXian,DengXian_MSFontService,sans-serif" font-weight="700" font-size="8" transform="matrix(1 0 0 0.99978 507.714 73)">）摘登，</text><text font-family="DengXian,DengXian_MSFontService,sans-serif" font-weight="700" font-size="8" transform="matrix(1 0 0 0.99978 539.721 73)">2019(11)</text><text font-family="DengXian,DengXian_MSFontService,sans-serif" font-weight="700" font-size="8" transform="matrix(1 0 0 0.99978 167.906 73)">第三章由权威期刊情报资料工作全文发表，</text><text font-family="DengXian,DengXian_MSFontService,sans-serif" font-weight="700" font-size="8" transform="matrix(1 0 0 0.99978 319.939 73)">2017</text><text font-family="DengXian,DengXian_MSFontService,sans-serif" font-weight="700" font-size="8" transform="matrix(1 0 0 0.99978 337.943 73)">（</text><text font-family="DengXian,DengXian_MSFontService,sans-serif" font-weight="700" font-size="8" transform="matrix(1 0 0 0.99978 345.945 73)">2</text><text font-family="DengXian,DengXian_MSFontService,sans-serif" font-weight="700" font-size="8" transform="matrix(1 0 0 0.99978 350.446 73)">）</text><text font-family="DengXian,DengXian_MSFontService,sans-serif" font-weight="700" font-size="8" transform="matrix(1 0 0 0.99978 374.685 93)">部分内容由权威期刊电子政务，</text><text font-family="DengXian,DengXian_MSFontService,sans-serif" font-weight="700" font-size="8" transform="matrix(1 0 0 0.99978 486.709 93)">2022(9)</text><text font-family="DengXian,DengXian_MSFontService,sans-serif" font-weight="700" font-size="8" transform="matrix(1 0 0 0.99978 514.549 93)">；现代情报，</text><text font-family="DengXian,DengXian_MSFontService,sans-serif" font-weight="700" font-size="8" transform="matrix(1 0 0 0.99978 374.685 103)">2021(10)</text><text font-family="DengXian,DengXian_MSFontService,sans-serif" font-weight="700" font-size="8" transform="matrix(1 0 0 0.99978 407.025 103)">；现代情报，</text><text font-family="DengXian,DengXian_MSFontService,sans-serif" font-weight="700" font-size="8" transform="matrix(1 0 0 0.99978 455.036 103)">2018</text><text font-family="DengXian,DengXian_MSFontService,sans-serif" font-weight="700" font-size="8" transform="matrix(1 0 0 0.99978 473.04 103)">（</text><text font-family="DengXian,DengXian_MSFontService,sans-serif" font-weight="700" font-size="8" transform="matrix(1 0 0 0.99978 481.042 103)">12</text><text font-family="DengXian,DengXian_MSFontService,sans-serif" font-weight="700" font-size="8" transform="matrix(1 0 0 0.99978 490.043 103)">）；现代情报，</text><text font-family="DengXian,DengXian_MSFontService,sans-serif" font-weight="700" font-size="8" transform="matrix(1 0 0 0.99978 546.056 103)">2018</text><text font-family="DengXian,DengXian_MSFontService,sans-serif" font-weight="700" font-size="8" transform="matrix(1 0 0 0.99978 564.06 103)">（</text><text font-family="DengXian,DengXian_MSFontService,sans-serif" font-weight="700" font-size="8" transform="matrix(1 0 0 0.99978 572.062 103)">5</text><text font-family="DengXian,DengXian_MSFontService,sans-serif" font-weight="700" font-size="8" transform="matrix(1 0 0 0.99978 576.563 103)">）；</text><text font-family="DengXian,DengXian_MSFontService,sans-serif" font-weight="700" font-size="8" transform="matrix(1 0 0 0.99978 374.685 113)">现代情报，</text><text font-family="DengXian,DengXian_MSFontService,sans-serif" font-weight="700" font-size="8" transform="matrix(1 0 0 0.99978 414.694 113)">2017</text><text font-family="DengXian,DengXian_MSFontService,sans-serif" font-weight="700" font-size="8" transform="matrix(1 0 0 0.99978 432.698 113)">（</text><text font-family="DengXian,DengXian_MSFontService,sans-serif" font-weight="700" font-size="8" transform="matrix(1 0 0 0.99978 440.699 113)">9</text><text font-family="DengXian,DengXian_MSFontService,sans-serif" font-weight="700" font-size="8" transform="matrix(1 0 0 0.99978 445.2 113)">）；现代情报，</text><text font-family="DengXian,DengXian_MSFontService,sans-serif" font-weight="700" font-size="8" transform="matrix(1 0 0 0.99978 501.213 113)">2017</text><text font-family="DengXian,DengXian_MSFontService,sans-serif" font-weight="700" font-size="8" transform="matrix(1 0 0 0.99978 519.217 113)">（</text><text font-family="DengXian,DengXian_MSFontService,sans-serif" font-weight="700" font-size="8" transform="matrix(1 0 0 0.99978 527.218 113)">5</text><text font-family="DengXian,DengXian_MSFontService,sans-serif" font-weight="700" font-size="8" transform="matrix(1 0 0 0.99978 531.719 113)">）观点摘登</text><text font-family="DengXian,DengXian_MSFontService,sans-serif" font-weight="700" font-size="8" transform="matrix(1 0 0 0.99978 167.906 93)">第四章由权威期刊情报资料工作全文发表，</text><text font-family="DengXian,DengXian_MSFontService,sans-serif" font-weight="700" font-size="8" transform="matrix(1 0 0 0.99978 319.939 93)">2018</text><text font-family="DengXian,DengXian_MSFontService,sans-serif" font-weight="700" font-size="8" transform="matrix(1 0 0 0.99978 337.943 93)">（</text><text font-family="DengXian,DengXian_MSFontService,sans-serif" font-weight="700" font-size="8" transform="matrix(1 0 0 0.99978 345.945 93)">2</text><text font-family="DengXian,DengXian_MSFontService,sans-serif" font-weight="700" font-size="8" transform="matrix(1 0 0 0.99978 350.446 93)">）</text><rect x="345.5" y="136.47" width="38" height="25.9942" stroke="#172C51" stroke-width="1.33363" stroke-miterlimit="8" fill="#4472C4"/><text fill="#FFFFFF" font-family="DengXian,DengXian_MSFontService,sans-serif" font-weight="400" font-size="8" transform="matrix(1 0 0 0.99978 355.734 146)">引用</text><text fill="#FFFFFF" font-family="DengXian,DengXian_MSFontService,sans-serif" font-weight="400" font-size="8" transform="matrix(1 0 0 0.99978 355.734 156)">转载</text><rect x="345.5" y="221.451" width="38" height="26.9941" stroke="#172C51" stroke-width="1.33363" stroke-miterlimit="8" fill="#4472C4"/><text fill="#FFFFFF" font-family="DengXian,DengXian_MSFontService,sans-serif" font-weight="400" font-size="8" transform="matrix(1 0 0 0.99978 355.734 232)">其他</text><text fill="#FFFFFF" font-family="DengXian,DengXian_MSFontService,sans-serif" font-weight="400" font-size="8" transform="matrix(1 0 0 0.99978 355.734 242)">情况</text><rect x="505.5" y="176.461" width="36.9999" height="26.994" stroke="#172C51" stroke-width="1.33363" stroke-miterlimit="8" fill="#4472C4"/><text fill="#FFFFFF" font-family="DengXian,DengXian_MSFontService,sans-serif" font-weight="400" font-size="8" transform="matrix(1 0 0 0.99978 515.472 187)">引用</text><text fill="#FFFFFF" font-family="DengXian,DengXian_MSFontService,sans-serif" font-weight="400" font-size="8" transform="matrix(1 0 0 0.99978 515.472 197)">转载</text><path d="M219.845 260.726 363.543 260.726 363.543 281.128 219.845 281.128Z" fill="#4472C4" fill-rule="evenodd"/><path d="M363.543 260.726 490.104 260.726 490.104 281.128 363.543 281.128Z" fill="#4472C4" fill-rule="evenodd"/><path d="M219.845 281.128 363.543 281.128 363.543 311.129 219.845 311.129Z" fill="#CFD5EA" fill-rule="evenodd"/><path d="M363.543 281.128 490.104 281.128 490.104 341.131 363.543 341.131Z" fill="#CFD5EA" fill-rule="evenodd"/><path d="M219.845 311.129 363.543 311.129 363.543 341.131 219.845 341.131Z" fill="#E9EBF5" fill-rule="evenodd"/><path d="M363.543 260.06 363.543 341.797" stroke="#FFFFFF" stroke-width="1.33363" stroke-linejoin="round" stroke-miterlimit="10" fill="none" fill-rule="evenodd"/><path d="M219.178 281.128 490.771 281.128" stroke="#FFFFFF" stroke-width="4.00088" stroke-linejoin="round" stroke-miterlimit="10" fill="none" fill-rule="evenodd"/><path d="M219.178 311.129 364.21 311.129" stroke="#FFFFFF" stroke-width="1.33363" stroke-linejoin="round" stroke-miterlimit="10" fill="none" fill-rule="evenodd"/><path d="M219.845 260.06 219.845 341.797" stroke="#FFFFFF" stroke-width="1.33363" stroke-linejoin="round" stroke-miterlimit="10" fill="none" fill-rule="evenodd"/><path d="M490.104 260.06 490.104 341.797" stroke="#FFFFFF" stroke-width="1.33363" stroke-linejoin="round" stroke-miterlimit="10" fill="none" fill-rule="evenodd"/><path d="M219.178 260.726 490.771 260.726" stroke="#FFFFFF" stroke-width="1.33363" stroke-linejoin="round" stroke-miterlimit="10" fill="none" fill-rule="evenodd"/><path d="M219.178 341.131 490.771 341.131" stroke="#FFFFFF" stroke-width="1.33363" stroke-linejoin="round" stroke-miterlimit="10" fill="none" fill-rule="evenodd"/><text fill="#FFFFFF" font-family="DengXian,DengXian_MSFontService,sans-serif" font-weight="700" font-size="8" transform="matrix(1 0 0 0.99978 410.82 273)">宣传推介</text><text fill="#FFFFFF" font-family="DengXian,DengXian_MSFontService,sans-serif" font-weight="700" font-size="8" transform="matrix(1 0 0 0.99978 247.684 273)">知名学者、重要期刊引用</text><text font-family="DengXian,DengXian_MSFontService,sans-serif" font-weight="700" font-size="8" transform="matrix(1 0 0 0.99978 374.348 303)">被当当、百度百科、中国科学</text><text font-family="DengXian,DengXian_MSFontService,sans-serif" font-weight="700" font-size="8" transform="matrix(1 0 0 0.99978 374.348 313)">院文献情报中心等宣传与收藏</text><text font-family="DengXian,DengXian_MSFontService,sans-serif" font-weight="700" font-size="8" transform="matrix(1 0 0 0.99978 230.649 293)">观点被多个学科著名学者在权威学</text><text font-family="DengXian,DengXian_MSFontService,sans-serif" font-weight="700" font-size="8" transform="matrix(1 0 0 0.99978 230.649 303)">术期刊引用，如鲍静、段尧清等</text><g><text font-family="DengXian,DengXian_MSFontService,sans-serif" font-weight="700" font-size="8" transform="matrix(1 0 0 0.99978 230.649 323)">观点被多个学科权威学术期刊引用，</text></g><text font-family="DengXian,DengXian_MSFontService,sans-serif" font-weight="700" font-size="8" transform="matrix(1 0 0 0.99978 230.649 333)">中国软科学、大学图书馆学报等</text><rect x="207" y="151.967" width="102" height="16.9962" fill="#B4C7E7"/><text fill="#203864" font-family="DengXian,DengXian_MSFontService,sans-serif" font-weight="400" font-size="7.33333" transform="matrix(1 0 0 0.99978 243.421 163)">范式创新</text><rect x="207" y="213.953" width="102" height="16.9962" fill="#B4C7E7"/><text fill="#203864" font-family="DengXian,DengXian_MSFontService,sans-serif" font-weight="400" font-size="7.33333" transform="matrix(1 0 0 0.99978 217.729 225)">现状探究及渠道选择模式</text><rect x="419" y="152.966" width="102" height="16.9962" fill="#B4C7E7"/><text fill="#203864" font-family="DengXian,DengXian_MSFontService,sans-serif" font-weight="400" font-size="7.33333" transform="matrix(1 0 0 0.99978 430.083 164)">渠道选择及使用意愿模型</text><rect x="420" y="213.953" width="102" height="16.9962" fill="#B4C7E7"/><text fill="#203864" font-family="DengXian,DengXian_MSFontService,sans-serif" font-weight="400" font-size="7.33333" transform="matrix(1 0 0 0.99978 430.35 225)">创新基本方向和具体途径</text><path d="M558.79 145.8 724.426 145.8 724.426 166.201 558.79 166.201Z" fill="#4472C4" fill-rule="evenodd"/><path d="M558.79 166.201 724.426 166.201 724.426 215.403 558.79 215.403Z" fill="#CFD5EA" fill-rule="evenodd"/><path d="M558.123 166.201 725.093 166.201" stroke="#FFFFFF" stroke-width="4.00088" stroke-linejoin="round" stroke-miterlimit="10" fill="none" fill-rule="evenodd"/><path d="M558.79 145.133 558.79 216.07" stroke="#FFFFFF" stroke-width="1.33363" stroke-linejoin="round" stroke-miterlimit="10" fill="none" fill-rule="evenodd"/><path d="M724.426 145.133 724.426 216.07" stroke="#FFFFFF" stroke-width="1.33363" stroke-linejoin="round" stroke-miterlimit="10" fill="none" fill-rule="evenodd"/><path d="M558.123 145.8 725.093 145.8" stroke="#FFFFFF" stroke-width="1.33363" stroke-linejoin="round" stroke-miterlimit="10" fill="none" fill-rule="evenodd"/><path d="M558.123 215.403 725.093 215.403" stroke="#FFFFFF" stroke-width="1.33363" stroke-linejoin="round" stroke-miterlimit="10" fill="none" fill-rule="evenodd"/><text fill="#FFFFFF" font-family="DengXian,DengXian_MSFontService,sans-serif" font-weight="700" font-size="8" transform="matrix(1 0 0 0.99978 585.596 158)">权威期刊发表又被权威期刊引用</text><text font-family="DengXian,DengXian_MSFontService,sans-serif" font-weight="700" font-size="8" transform="matrix(1 0 0 0.99978 569.594 179)">第二、三、四、五、六章由权威期刊发</text><text font-family="DengXian,DengXian_MSFontService,sans-serif" font-weight="700" font-size="8" transform="matrix(1 0 0 0.99978 569.594 189)">表</text><text font-family="DengXian,DengXian_MSFontService,sans-serif" font-weight="700" font-size="8" transform="matrix(1 0 0 0.99978 577.596 189)">/</text><text font-family="DengXian,DengXian_MSFontService,sans-serif" font-weight="700" font-size="8" transform="matrix(1 0 0 0.99978 580.93 189)">摘登后，被权威期刊</text><text font-family="DengXian,DengXian_MSFontService,sans-serif" font-weight="700" font-size="8" transform="matrix(1 0 0 0.99978 652.946 189)">/</text><text font-family="DengXian,DengXian_MSFontService,sans-serif" font-weight="700" font-size="8" transform="matrix(1 0 0 0.99978 656.28 189)">出版社引用</text><text font-family="DengXian,DengXian_MSFontService,sans-serif" font-weight="700" font-size="8" transform="matrix(1 0 0 0.99978 696.289 189)">36</text><g><text font-family="DengXian,DengXian_MSFontService,sans-serif" font-weight="700" font-size="8" transform="matrix(1 0 0 0.99978 705.291 189)">次，</text></g><text font-family="DengXian,DengXian_MSFontService,sans-serif" font-weight="700" font-size="8" transform="matrix(1 0 0 0.99978 569.594 199)">其中第五章由权威期刊情报资料工作全</text><text font-family="DengXian,DengXian_MSFontService,sans-serif" font-weight="700" font-size="8" transform="matrix(1 0 0 0.99978 569.594 208)">文发表后被权威期刊引</text><text font-family="DengXian,DengXian_MSFontService,sans-serif" font-weight="700" font-size="8" transform="matrix(1 0 0 0.99978 649.612 208)">2</text><text font-family="DengXian,DengXian_MSFontService,sans-serif" font-weight="700" font-size="8" transform="matrix(1 0 0 0.99978 654.113 208)">次</text><path d="M313.5 177.794C313.5 173.745 316.783 170.462 320.833 170.462L403.167 170.462C407.217 170.462 410.5 173.745 410.5 177.794L410.5 207.121C410.5 211.17 407.217 214.453 403.167 214.453L320.833 214.453C316.783 214.453 313.5 211.17 313.5 207.121Z" stroke="#172C51" stroke-width="1.33363" stroke-miterlimit="8" fill="#4472C4" fill-rule="evenodd"/><text fill="#FFFFFF" font-family="DengXian,DengXian_MSFontService,sans-serif" font-weight="700" font-size="10.6667" transform="matrix(1 0 0 0.99978 329.915 183)">公众获取政府</text><text fill="#FFFFFF" font-family="DengXian,DengXian_MSFontService,sans-serif" font-weight="700" font-size="10.6667" transform="matrix(1 0 0 0.99978 329.915 196)">信息渠道选择</text><text fill="#FFFFFF" font-family="DengXian,DengXian_MSFontService,sans-serif" font-weight="700" font-size="10.6667" transform="matrix(1 0 0 0.99978 335.25 209)">及策略研究</text></g></svg>